<?xml version="1.0" encoding="UTF-8"?>
<svg version="1.1" xmlns="http://www.w3.org/2000/svg" width="1400" height="960">
<path d="M0 0 C13.53 0 27.06 0 41 0 C41.99 5.28 42.98 10.56 44 16 C46.02240687 26.75315442 48.08263735 37.49689835 50.24609375 48.22265625 C50.52158554 49.58951065 50.52158554 49.58951065 50.80264282 50.98397827 C51.69883737 55.42354463 52.60093292 59.86183232 53.50976562 64.29882812 C53.8386153 65.91925589 54.16739497 67.53969787 54.49609375 69.16015625 C54.72527748 70.26557518 54.72527748 70.26557518 54.95909119 71.39332581 C55.62666047 74.69882916 56 77.60757723 56 81 C59.63 81 63.26 81 67 81 C64.01353231 82.99097846 61.40312738 83.94124926 58 85 C58.63552996 91.53912718 59.67505869 97.87356743 61.00390625 104.3046875 C61.41479836 106.33048433 61.82568688 108.35628189 62.23657227 110.38208008 C62.45258087 111.43940338 62.66858948 112.49672668 62.8911438 113.58609009 C66.61485924 131.82821638 70.18569178 150.09100681 73.53689575 168.4050293 C75.43934014 178.78897575 77.40918117 189.15528699 79.49609375 199.50390625 C79.70532974 200.5418483 79.91456573 201.57979034 80.13014221 202.64918518 C81.14740688 207.68430864 82.17269324 212.7176749 83.20727539 217.74926758 C83.57573079 219.55939795 83.94414138 221.36953744 84.3125 223.1796875 C84.56966042 224.41248192 84.56966042 224.41248192 84.83201599 225.67018127 C84.98670853 226.43370407 85.14140106 227.19722687 85.30078125 227.98388672 C85.50441284 228.97181717 85.50441284 228.97181717 85.7121582 229.97970581 C86 232 86 232 86 237 C99.2 237 112.4 237 126 237 C126.495 230.565 126.495 230.565 127 224 C127.67544965 220.03932614 128.39730304 216.13799326 129.22265625 212.2109375 C129.44375061 211.12503326 129.66484497 210.03912903 129.89263916 208.9203186 C130.3649762 206.60310922 130.84066797 204.28658146 131.31948853 201.97070312 C132.58941228 195.82507956 133.83293895 189.67411268 135.078125 183.5234375 C135.32859085 182.28889832 135.5790567 181.05435913 135.83711243 179.78240967 C138.10998012 168.54228557 140.24144426 157.27883481 142.3125 146 C142.63287294 144.25789003 142.95326655 142.51578386 143.27368164 140.77368164 C143.50655128 139.50756294 143.50655128 139.50756294 143.74412537 138.21586609 C143.89688431 137.38537247 144.04964325 136.55487885 144.20703125 135.69921875 C144.35652725 134.88560379 144.50602325 134.07198883 144.66004944 133.23371887 C146.22266029 124.75017565 147.85321211 116.28005385 149.5 107.8125 C149.63032623 107.14226807 149.76065247 106.47203613 149.89492798 105.78149414 C150.59434607 102.187217 151.2960035 98.59338306 152 95 C150.87722656 95.27714844 149.75445313 95.55429687 148.59765625 95.83984375 C132.65410669 99.72503691 132.65410669 99.72503691 126 100 C124.83855469 100.06316406 123.67710937 100.12632812 122.48046875 100.19140625 C107.00112619 100.6698306 97.54917955 94.15852368 85 86 C88.40584336 84.86471888 88.88810182 85.08919694 92.0546875 86.3984375 C92.83457031 86.71296875 93.61445312 87.0275 94.41796875 87.3515625 C95.22878906 87.68929687 96.03960938 88.02703125 96.875 88.375 C108.15333229 93.0094351 116.93143716 93.53251592 129 92 C129 89.03 129 86.06 129 83 C129.99 83 130.98 83 132 83 C132 85.31 132 87.62 132 90 C132.55461914 89.81824219 133.10923828 89.63648438 133.68066406 89.44921875 C136.20184503 88.62675068 138.72584661 87.81329761 141.25 87 C142.12269531 86.71382813 142.99539063 86.42765625 143.89453125 86.1328125 C145.16103516 85.72675781 145.16103516 85.72675781 146.453125 85.3125 C147.22817383 85.06113281 148.00322266 84.80976563 148.80175781 84.55078125 C151 84 151 84 155 84 C155.08709229 83.20577637 155.17418457 82.41155273 155.26391602 81.59326172 C156.78922614 68.9674222 159.38711219 56.57705528 161.9375 44.125 C162.82447842 39.77401561 163.70823226 35.42238737 164.58984375 31.0703125 C164.80128021 30.02957581 165.01271667 28.98883911 165.2305603 27.91656494 C166.63734123 20.94347577 167.94326477 13.95946676 169.10325623 6.94094849 C169.89924552 2.20150895 169.89924552 2.20150895 171 0 C184.2 0 197.4 0 211 0 C208.74999137 10.12503884 208.74999137 10.12503884 207.53854275 13.75910187 C207.26347249 14.59151917 206.98840224 15.42393647 206.70499653 16.28157854 C206.40801036 17.16516275 206.1110242 18.04874696 205.80503845 18.95910645 C205.3257579 20.40290971 205.3257579 20.40290971 204.83679491 21.87588072 C203.7716809 25.0807997 202.70018378 28.28354631 201.62866211 31.48632812 C200.86114898 33.79129686 200.09402329 36.09639463 199.32725525 38.40161133 C197.46438777 43.99862919 195.59734961 49.59424504 193.72830408 55.18920189 C191.55201913 61.70440378 189.38033304 68.22113556 187.20877749 74.73791498 C183.33589872 86.35973618 179.45857503 97.9800696 175.57885742 109.59960938 C171.81250182 120.87964118 168.04974587 132.16086568 164.29077148 143.44335938 C160.19531738 155.73577293 156.09800207 168.02756293 151.99731833 180.31823301 C151.56061073 181.6271485 151.12390353 182.93606411 150.68719673 184.24497986 C150.47232682 184.88898606 150.2574569 185.53299226 150.03607578 186.1965138 C148.51967075 190.74184437 147.00455171 195.28760242 145.48988152 199.83351135 C143.45477186 205.94117776 141.41641094 212.04775314 139.37583351 218.15359497 C138.62536564 220.40073803 137.87592933 222.64822588 137.12757111 224.89607239 C136.11047152 227.95056779 135.08972356 231.00381888 134.06797791 234.0567627 C133.76876102 234.95819268 133.46954413 235.85962266 133.16126007 236.7883687 C131.11416492 242.88583508 131.11416492 242.88583508 130 244 C128.4651703 244.09319449 126.92607918 244.117458 125.38842773 244.11352539 C124.40748642 244.11344986 123.4265451 244.11337433 122.4158783 244.11329651 C121.3492244 244.10813522 120.2825705 244.10297394 119.18359375 244.09765625 C117.55430687 244.09553383 117.55430687 244.09553383 115.8921051 244.09336853 C112.40720925 244.08775048 108.92237658 244.07519492 105.4375 244.0625 C103.08138113 244.05748733 100.72526126 244.05292402 98.36914062 244.04882812 C92.57940536 244.03777519 86.78970719 244.02101951 81 244 C70.67934844 213.06083477 60.36022132 182.12116164 50.04323611 151.18077365 C48.82652427 147.53188892 47.60979937 143.88300854 46.39306641 140.23413086 C46.15082661 139.50767378 45.90858681 138.7812167 45.65900642 138.03274577 C41.73142707 126.25436465 37.80278865 114.47633704 33.87376195 102.69843865 C29.84529055 90.6223604 25.81794999 78.54590546 21.79166937 66.4690966 C19.30517269 59.01098191 16.81778366 51.55316604 14.32926929 44.09572434 C12.42443799 38.38711782 10.52117668 32.67798915 8.61851692 26.96865845 C7.83534086 24.61940681 7.05164538 22.27032827 6.26740837 19.92143059 C5.20192201 16.72990139 4.13825676 13.53777117 3.07507324 10.34547424 C2.75990643 9.40288665 2.44473962 8.46029905 2.1200223 7.4891482 C1.83786726 6.64069203 1.55571221 5.79223585 1.26500702 4.91806889 C1.01894825 4.18027228 0.77288947 3.44247568 0.51937437 2.68232161 C0 1 0 1 0 0 Z " fill="#020202" transform="translate(701,254)"/>
<path d="M0 0 C2.70091286 1.57367237 5.36317508 3.19866647 8.0234375 4.83984375 C21.53250247 12.88195899 34.65320457 11.24409055 49.8359375 8.65234375 C51.00511719 8.4615625 52.17429687 8.27078125 53.37890625 8.07421875 C56.19995312 7.61120989 59.01822014 7.13506376 61.8359375 6.65234375 C61.31410143 16.03215395 59.75071491 25.08823946 57.8984375 34.27734375 C57.59122741 35.82817506 57.28460602 37.37912309 56.97851562 38.93017578 C55.94112441 44.17294149 54.88958828 49.41282475 53.8359375 54.65234375 C53.64134949 55.62018799 53.44676147 56.58803223 53.24627686 57.58520508 C52.83826434 59.61429802 52.43020271 61.64338109 52.02209473 63.67245483 C50.95927213 68.95726319 49.89745709 74.24227354 48.8359375 79.52734375 C48.6233429 80.58467712 48.41074829 81.6420105 48.19171143 82.73138428 C43.78907939 104.64749832 39.51119898 126.60077484 35.8359375 148.65234375 C22.6359375 148.65234375 9.4359375 148.65234375 -4.1640625 148.65234375 C-7.64954628 132.18343289 -10.93498335 115.70728876 -13.9765625 99.15234375 C-16.78478817 83.87520658 -19.72412306 68.63006254 -22.7890625 53.40234375 C-23.16828019 51.51368539 -23.54743125 49.62501364 -23.92651367 47.73632812 C-25.33202532 40.73907712 -26.73862537 33.74206351 -28.16015625 26.74804688 C-28.91056028 23.05437607 -29.65220783 19.35905796 -30.38690186 15.66223145 C-30.77662251 13.71451538 -31.1764763 11.76883539 -31.57666016 9.82324219 C-31.80401855 8.6737207 -32.03137695 7.52419922 -32.265625 6.33984375 C-32.46494629 5.35371094 -32.66426758 4.36757813 -32.86962891 3.3515625 C-33.17786367 0.52582156 -32.87407598 -1.6098343 -32.1640625 -4.34765625 C-20.83027393 -9.24875401 -10.17497257 -5.70077231 0 0 Z " fill="#FDFDFD" transform="translate(791.1640625,342.34765625)"/>
<path d="M0 0 C0.83917969 -0.00515625 1.67835938 -0.0103125 2.54296875 -0.015625 C4.8125 0.25 4.8125 0.25 7.8125 2.25 C9.2123081 9.29339759 6.98174442 16.07672698 4.75 22.6875 C1.91758372 31.49905754 -0.595726 40.34175082 -2.875 49.3125 C-4.9362983 57.41053876 -7.06261656 65.46445398 -9.41015625 73.484375 C-10.50413236 77.3765111 -11.36853155 81.2916525 -12.1875 85.25 C-9.8775 85.25 -7.5675 85.25 -5.1875 85.25 C-5.375 87.5625 -5.375 87.5625 -6.1875 90.25 C-9.50714326 92.85188256 -10.88066041 93.25 -15.1875 93.25 C-15.31705078 94.38308594 -15.31705078 94.38308594 -15.44921875 95.5390625 C-16.27632639 102.01933701 -17.39011757 108.24945134 -18.96435547 114.58325195 C-21.80035657 126.03101248 -23.20015116 137.34515195 -24.02319336 149.08398438 C-24.66836517 157.21067815 -25.49167381 162.35554975 -31.22265625 168.39453125 C-31.89167969 168.94496094 -32.56070313 169.49539063 -33.25 170.0625 C-34.25740234 170.90748047 -34.25740234 170.90748047 -35.28515625 171.76953125 C-39.52801984 175.07147232 -41.82545257 175.54789152 -47.1875 175.25 C-49.04007994 173.39742006 -48.40465815 170.48774203 -48.4375 168.00390625 C-48.37833452 160.68310279 -47.08690101 154.22586127 -45.1875 147.1875 C-44.54635263 144.68342141 -43.90988162 142.17814222 -43.27734375 139.671875 C-43.11024399 139.01422653 -42.94314423 138.35657806 -42.77098083 137.67900085 C-40.53982347 128.81600631 -38.65889044 119.87425421 -36.75 110.9375 C-36.39261104 109.27009386 -36.03518993 107.6026946 -35.67773438 105.93530273 C-34.84402222 102.04096917 -34.01446475 98.14577168 -33.1875 94.25 C-61.07676501 95.47890175 -61.07676501 95.47890175 -88.1875 101.25 C-89.56570412 103.48690779 -90.73708742 105.64297592 -91.875 108 C-92.21950195 108.70447266 -92.56400391 109.40894531 -92.91894531 110.13476562 C-100.52880926 126.0720147 -107.82065231 143.55869856 -108.625 161.375 C-108.99107016 167.81306005 -108.99107016 167.81306005 -111.25 170.8125 C-115.73931958 174.53768008 -119.60141531 177.25 -125.5625 177.25 C-128.1875 176.25 -128.1875 176.25 -129.5625 174.6875 C-131.33702003 167.76687187 -129.80820952 161.69256777 -127.5625 155.125 C-127.26617676 154.24553711 -126.96985352 153.36607422 -126.66455078 152.45996094 C-123.64737255 143.90666244 -119.90738159 135.70494762 -116.0625 127.5 C-115.7614032 126.8573822 -115.4603064 126.2147644 -115.15008545 125.55267334 C-111.74149926 118.31298722 -108.20674355 111.17369404 -104.1875 104.25 C-105.5178125 104.745 -105.5178125 104.745 -106.875 105.25 C-109.89673347 106.16222143 -112.07123706 106.43330958 -115.1875 106.25 C-115.55202328 100.78215078 -115.55202328 100.78215078 -114.1171875 98.6875 C-111.32704867 96.60901601 -108.47065922 95.96551661 -105.125 95.0625 C-103.25134766 94.54623047 -103.25134766 94.54623047 -101.33984375 94.01953125 C-98.1875 93.25 -98.1875 93.25 -96.1875 93.25 C-95.9709375 92.59 -95.754375 91.93 -95.53125 91.25 C-93.72401373 87.21523996 -91.26307448 83.82955075 -88.6875 80.25 C-88.14996094 79.4974292 -87.61242187 78.7448584 -87.05859375 77.96948242 C-75.17945347 61.42328629 -62.16747612 46.04964899 -48.1875 31.25 C-47.44113281 30.44949219 -46.69476563 29.64898437 -45.92578125 28.82421875 C-35.03596698 17.49156546 -16.44751999 -0.10200012 0 0 Z " fill="#050505" transform="translate(353.1875,306.75)"/>
<path d="M0 0 C0.495 0.495 0.495 0.495 1 1 C0.53660292 6.17480561 -0.80224293 10.81571277 -2.58203125 15.6640625 C-2.83748215 16.37799164 -3.09293304 17.09192078 -3.35612488 17.82748413 C-4.16867123 20.09562693 -4.9899763 22.36045844 -5.8125 24.625 C-6.88543076 27.59495475 -7.95437204 30.56631176 -9.01953125 33.5390625 C-9.27944351 34.26441193 -9.53935577 34.98976135 -9.80714417 35.73709106 C-12.06976 42.10023973 -14.06209084 48.53106197 -16 55 C-17.13231814 58.62931325 -18.2842479 62.25229136 -19.4375 65.875 C-19.7360791 66.81682129 -20.0346582 67.75864258 -20.34228516 68.72900391 C-21.91357685 73.66674808 -23.53073717 78.58293313 -25.22216797 83.48071289 C-27.13459692 89.02990372 -28.64071185 94.13162683 -29 100 C-19.93702173 98.15668239 -14.81957426 92.77259651 -8.47021484 86.45996094 C-7.23192711 85.23030955 -5.97185632 84.02265047 -4.70703125 82.8203125 C10.52966829 68.16145186 23.3448237 50.78262603 29.06054688 30.40356445 C31.78948202 20.90192764 35.17704958 11.361793 44 6 C48.10196769 4.15830022 51.51776064 3.68728563 56 4 C57 5 57 5 57.21875 8.5234375 C57.15199639 13.21079281 56.01343731 17.21730887 54.5 21.625 C54.28085937 22.33011719 54.06171875 23.03523438 53.8359375 23.76171875 C52.1705532 28.73157611 49.87844984 32.92558769 47.140625 37.39453125 C42.12729585 45.76253039 39.76040896 54.70226087 37.25 64.0625 C36.7921489 65.71989499 36.33251925 67.37679971 35.87109375 69.03320312 C35.19555759 71.46132576 34.52124608 73.88971877 33.85287476 76.31982422 C26.32749154 103.6742269 17.36902271 131.43768814 5 157 C4.59185059 157.84530273 4.18370117 158.69060547 3.76318359 159.56152344 C-9.48181828 186.60964667 -27.64270233 208.822568 -56.734375 219.3515625 C-65.31009273 222.04845111 -72.91337826 223.20264665 -81.875 223.25 C-83.32712891 223.2809375 -83.32712891 223.2809375 -84.80859375 223.3125 C-90.67544156 223.34442842 -94.83098651 222.83951141 -100 220 C-100.66 219.34 -101.32 218.68 -102 218 C-101.625 215.875 -101.625 215.875 -101 214 C-99.88927124 214.01571045 -99.88927124 214.01571045 -98.75610352 214.03173828 C-95.35827105 214.07365081 -91.96049325 214.09943745 -88.5625 214.125 C-86.81549805 214.15013672 -86.81549805 214.15013672 -85.03320312 214.17578125 C-66.2309118 214.28170965 -51.03026368 207.77997447 -37.375 194.875 C-31.78667614 189.22284274 -27.80569706 182.93347724 -24 176 C-23.60377441 175.30277832 -23.20754883 174.60555664 -22.79931641 173.88720703 C-9.25934425 149.99465792 -0.02756991 123.86378683 8.95703125 97.99365234 C9.90651155 95.26834161 10.8704163 92.54889717 11.84375 89.83203125 C14.42862036 82.61150955 16.93034319 75.3890379 19 68 C11.75320993 75.82507015 11.75320993 75.82507015 4.6875 83.8125 C1.21588787 87.81368009 -2.38926701 91.68727905 -6 95.5625 C-6.58177002 96.18809814 -7.16354004 96.81369629 -7.76293945 97.45825195 C-30.87339078 122.1797762 -30.87339078 122.1797762 -43.5078125 123.203125 C-44.37148438 123.21859375 -45.23515625 123.2340625 -46.125 123.25 C-46.99382813 123.27578125 -47.86265625 123.3015625 -48.7578125 123.328125 C-49.49773438 123.21984375 -50.23765625 123.1115625 -51 123 C-54.20675171 118.18987243 -53.53252756 113.62622156 -53 108 C-52.36597384 105.39072522 -51.68765565 102.87216865 -50.8984375 100.3125 C-50.67791214 99.58094696 -50.45738678 98.84939392 -50.23017883 98.09567261 C-47.72544809 89.90564521 -44.91236751 81.82085034 -42.09481812 73.73440552 C-37.57805299 60.74439503 -33.13839527 47.73716193 -29.1875 34.5625 C-28.86869873 33.51787598 -28.54989746 32.47325195 -28.22143555 31.39697266 C-26.42545371 25.26724158 -25.38205596 19.37779907 -25 13 C-25.65194336 13.23968506 -26.30388672 13.47937012 -26.97558594 13.72631836 C-34.10714286 16.34821429 -34.10714286 16.34821429 -38 15 C-35.79298712 9.49433347 -31.10228701 7.53753741 -26 5 C-17.36238994 1.56876894 -9.29300063 -0.31501697 0 0 Z " fill="#040404" transform="translate(647,362)"/>
<path d="M0 0 C2.1640625 1.60546875 2.1640625 1.60546875 3.1640625 3.60546875 C4.17817468 11.42861987 1.36105874 17.0795035 -2.8359375 23.60546875 C-16.2210448 40.34208962 -32.89411808 52.56167219 -51.99145508 61.93896484 C-52.86439209 62.37418457 -53.7373291 62.8094043 -54.63671875 63.2578125 C-55.81488159 63.8300354 -55.81488159 63.8300354 -57.0168457 64.41381836 C-59.16219553 65.55043221 -59.16219553 65.55043221 -59.8359375 68.60546875 C-60.08794549 71.64254684 -60.06724754 74.68400521 -60.0859375 77.73046875 C-60.1065625 78.54773438 -60.1271875 79.365 -60.1484375 80.20703125 C-60.20094455 88.50314549 -58.24937877 96.1394139 -52.8359375 102.60546875 C-47.54442278 106.23298513 -43.64530679 107.31875618 -37.2734375 107.23046875 C-36.10675537 107.22660156 -36.10675537 107.22660156 -34.91650391 107.22265625 C-26.99700448 106.9636904 -20.75794247 104.34468687 -13.8359375 100.60546875 C-12.8359375 101.60546875 -12.8359375 101.60546875 -12.1484375 104.29296875 C-12.8359375 107.60546875 -12.8359375 107.60546875 -14.8203125 109.23046875 C-17.44071608 110.81859213 -20.09331107 112.24025026 -22.8359375 113.60546875 C-23.9084375 114.16234375 -24.9809375 114.71921875 -26.0859375 115.29296875 C-39.00849773 119.81586483 -52.91213261 122.18668498 -65.8359375 116.60546875 C-74.3000505 112.4488622 -78.20366368 106.50539282 -81.96875 98.06640625 C-85.64896273 83.3787104 -83.80400042 66.38280549 -77.8359375 52.60546875 C-77.413125 51.5690625 -76.9903125 50.53265625 -76.5546875 49.46484375 C-65.92408246 25.85501164 -43.31345287 8.63586694 -19.6484375 -0.64453125 C-13.28890428 -1.89558697 -5.9596218 -2.93055782 0 0 Z " fill="#050505" transform="translate(517.8359375,364.39453125)"/>
<path d="M0 0 C2.17467827 3.18435033 2.52867166 5.13414405 2.28515625 8.94921875 C-0.81220442 24.07428654 -13.4406971 35.69299527 -25.25 44.5625 C-26.08917969 45.21605469 -26.92835938 45.86960937 -27.79296875 46.54296875 C-33.30011145 50.71706632 -39.06076993 54.3579964 -45 57.875 C-46.06371826 58.50619751 -46.06371826 58.50619751 -47.14892578 59.15014648 C-50.44533349 61.06771262 -53.63355444 62.75459916 -57.203125 64.10546875 C-60.27264279 65.20733401 -60.27264279 65.20733401 -61.17578125 67.265625 C-61.20027344 68.02359375 -61.22476563 68.7815625 -61.25 69.5625 C-61.30542969 70.75359375 -61.36085938 71.9446875 -61.41796875 73.171875 C-61.53096761 83.3614245 -61.20407444 92.84403386 -55.25 101.5625 C-48.08873132 107.3810308 -40.17034451 107.28474112 -31.31103516 106.81103516 C-26.21676121 106.1967292 -21.77011017 103.84879121 -17.25 101.5625 C-16.26 101.2325 -15.27 100.9025 -14.25 100.5625 C-13.92 102.5425 -13.59 104.5225 -13.25 106.5625 C-26.31672087 116.03113831 -41.96499973 121.34715756 -58.25 119.5625 C-67.49524479 117.52684977 -73.63051098 112.96458124 -79.5625 105.75 C-83.51150822 98.29076226 -84.78838683 90.80716575 -84.6875 82.4375 C-84.67847656 81.52589111 -84.66945313 80.61428223 -84.66015625 79.67504883 C-84.17992052 60.63070057 -76.83651079 43.76198802 -64.25 29.5625 C-63.76015625 28.94246094 -63.2703125 28.32242187 -62.765625 27.68359375 C-53.41199678 15.93901001 -37.44770352 5.51585701 -23.25 0.5625 C-22.62480469 0.34078125 -21.99960937 0.1190625 -21.35546875 -0.109375 C-14.53676441 -2.16470747 -6.5820521 -2.91129227 0 0 Z " fill="#050505" transform="translate(992.25,364.4375)"/>
<path d="M0 0 C1 1 1 1 1.01953125 2.828125 C0.5078929 8.81332838 -0.84820017 14.11331067 -2.703125 19.8125 C-4.45546695 25.31986043 -5.8908421 30.91581549 -7.375 36.5 C-9.55843103 44.68669751 -11.78127019 52.85765812 -14.125 61 C-14.49298706 62.27883057 -14.49298706 62.27883057 -14.8684082 63.58349609 C-15.34862482 65.25195543 -15.82884923 66.92041252 -16.30908203 68.58886719 C-19.60718803 80.09844132 -22.73434035 91.65173742 -25.75 103.23828125 C-26.56046539 106.34654265 -27.39390363 109.4469765 -28.25 112.54296875 C-35.07302559 136.00040395 -35.07302559 136.00040395 -36.875 160.125 C-36.71745379 164.42601149 -36.80450536 166.7030932 -39.75 169.9375 C-41.671875 171.46875 -41.671875 171.46875 -44 173 C-45.43085937 173.97453125 -45.43085937 173.97453125 -46.890625 174.96875 C-56.62636842 181.13309006 -56.62636842 181.13309006 -63 180 C-64 179 -64 179 -64.0546875 177.19921875 C-62.96845752 162.01561266 -57.82742471 147.07770179 -53.70214844 132.48779297 C-52.66532845 128.81422005 -51.6397694 125.13751635 -50.61279297 121.46118164 C-49.72806073 118.29652395 -48.84082577 115.1325762 -47.953125 111.96875 C-46.75222209 107.68791335 -45.55523944 103.40601677 -44.36230469 99.12295532 C-43.41029164 95.7063856 -42.45576096 92.29052302 -41.5 88.875 C-41.21394897 87.85252167 -41.21394897 87.85252167 -40.92211914 86.80938721 C-38.47781081 78.08685066 -35.9337059 69.40236889 -33.25 60.75 C-28.59930509 45.67204131 -24.59679854 30.72965727 -23 15 C-26.96 15.66 -30.92 16.32 -35 17 C-35.33 15.68 -35.66 14.36 -36 13 C-9.83828406 -0.69243055 -9.83828406 -0.69243055 0 0 Z " fill="#050505" transform="translate(594,305)"/>
<path d="M0 0 C0.495 0.495 0.495 0.495 1 1 C0.68304983 7.33900339 -0.76227885 12.8243141 -2.703125 18.84375 C-4.40352385 24.18786066 -5.87485633 29.59703024 -7.375 35 C-9.86698267 43.95585596 -12.38663782 52.90267374 -14.95849609 61.8359375 C-17.90606176 72.09861425 -20.64532864 82.41122732 -23.3125 92.75 C-25.33630875 100.58343809 -27.36797533 108.41448372 -29.4296875 116.23803711 C-30.41085937 119.97590996 -31.37580964 123.71787409 -32.33886719 127.46044922 C-32.95136196 129.81317101 -33.58667439 132.15852259 -34.2265625 134.50390625 C-36.04975966 141.42615875 -37.11775484 147.71245089 -37.16674805 154.89550781 C-37.25132475 165.76510644 -37.25132475 165.76510644 -39.73828125 169.8671875 C-42.04709675 171.98061101 -44.26755032 173.48243949 -47 175 C-47.77601563 175.51691406 -48.55203125 176.03382813 -49.3515625 176.56640625 C-54.05147764 179.53009844 -57.46496374 180.69187953 -63 180 C-64 179 -64 179 -64.19921875 175.5234375 C-64.13356703 170.68243018 -63.06144515 166.28124369 -61.8125 161.625 C-61.58546387 160.75069336 -61.35842773 159.87638672 -61.12451172 158.97558594 C-60.4284843 156.31365385 -59.71709747 153.656326 -59 151 C-58.79713379 150.24364258 -58.59426758 149.48728516 -58.38525391 148.70800781 C-56.47208842 141.60835777 -54.46021036 134.53926419 -52.375 127.48828125 C-48.8480934 115.55297432 -45.52240216 103.59409057 -42.48486328 91.52368164 C-40.8368628 85.02268274 -38.99554974 78.61700178 -36.99291992 72.21655273 C-35.39708081 67.04685018 -33.94740354 61.83786626 -32.5 56.625 C-32.19811768 55.53791748 -31.89623535 54.45083496 -31.58520508 53.33081055 C-30.99029706 51.18514901 -30.39626718 49.03924375 -29.80322266 46.89306641 C-29.12217442 44.44005073 -28.42977292 41.99082017 -27.73046875 39.54296875 C-25.44966732 31.38504603 -23.98507831 23.41205029 -23 15 C-26.96 15.66 -30.92 16.32 -35 17 C-35.33 15.68 -35.66 14.36 -36 13 C-9.53198735 -0.52955485 -9.53198735 -0.52955485 0 0 Z " fill="#040404" transform="translate(439,305)"/>
<path d="M0 0 C0.7003688 0.00141495 1.40073761 0.0028299 2.12232971 0.00428772 C4.33290091 0.00983148 6.54336629 0.02237299 8.75390625 0.03515625 C10.2636704 0.04017854 11.77343616 0.04474016 13.28320312 0.04882812 C16.96097118 0.05978238 20.63867837 0.07700735 24.31640625 0.09765625 C21.9969256 5.89973904 20.16051075 9.175604 14.31640625 12.09765625 C11.66124435 12.12384866 9.03167485 12.09157196 6.37890625 12.01953125 C4.74481209 11.99223837 3.11069589 11.96623977 1.4765625 11.94140625 C-1.09321715 11.89843825 -3.66184083 11.84827335 -6.23095703 11.77539062 C-17.68968127 11.46443474 -26.04076528 11.72012844 -35.30859375 19.22265625 C-37.43742637 23.67385172 -37.62719051 28.26866105 -36.68359375 33.09765625 C-33.93437871 37.10413672 -31.08971509 39.35924909 -26.921875 41.8046875 C-25.80232422 42.47435547 -24.68277344 43.14402344 -23.52929688 43.83398438 C-21.77130417 44.86928736 -20.01135797 45.90120958 -18.2512207 46.93286133 C2.723174 59.28066659 2.723174 59.28066659 5.31640625 68.09765625 C7.00865158 77.68704644 3.30284039 85.15254308 -1.68359375 93.09765625 C-10.80305892 105.65616925 -23.24360414 111.83709136 -38.0234375 115.7109375 C-48.57122186 117.24431584 -60.28434538 117.6010391 -69.68359375 112.09765625 C-71.35421875 111.13859375 -71.35421875 111.13859375 -73.05859375 110.16015625 C-75.882664 107.94124391 -77.87191554 106.21374278 -79.68359375 103.09765625 C-79.88191993 99.46167625 -79.66799798 97.22381469 -77.21875 94.421875 C-75.44142504 92.85456218 -73.62034121 91.46162095 -71.68359375 90.09765625 C-70.38421875 89.13859375 -70.38421875 89.13859375 -69.05859375 88.16015625 C-66.04654768 86.81266195 -64.77856982 87.02892233 -61.68359375 88.09765625 C-60.34765625 90.20703125 -60.34765625 90.20703125 -59.30859375 92.84765625 C-56.9255583 98.11899099 -54.67436824 100.23258201 -49.68359375 103.09765625 C-41.47998961 105.83219096 -31.52043553 104.49923021 -23.68359375 101.09765625 C-18.11925783 97.53242777 -14.47128064 93.57802121 -12.68359375 87.09765625 C-11.90737478 82.14043967 -12.06022357 79.25766685 -14.48046875 74.75390625 C-18.31847086 69.67836653 -23.9442387 67.08215997 -29.43359375 64.09765625 C-52.20472051 51.53427597 -52.20472051 51.53427597 -54.68359375 44.09765625 C-55.18915793 36.90308913 -55.43081368 30.46793014 -51.68359375 24.09765625 C-51.3278125 23.47761719 -50.97203125 22.85757812 -50.60546875 22.21875 C-43.95466563 11.98212231 -31.68920404 5.552099 -20.18359375 2.47265625 C-19.30703125 2.23289062 -18.43046875 1.993125 -17.52734375 1.74609375 C-11.66294109 0.40888106 -6.00719504 -0.02412528 0 0 Z " fill="#050504" transform="translate(1153.68359375,368.90234375)"/>
<path d="M0 0 C1.10575085 9.39958832 -2.20180683 17.38410743 -5.4375 26 C-5.96042513 27.43046372 -6.48192097 28.86145078 -7.00195312 30.29296875 C-10.67232831 40.34465661 -10.67232831 40.34465661 -12 43 C-11.34 43 -10.68 43 -10 43 C-9.78988281 42.34 -9.57976562 41.68 -9.36328125 41 C-1.95569378 24.69906253 14.80718771 7.18289054 31.5 0.625 C35.96672919 -0.17263021 40.49269143 -0.73283164 45 0 C46.796875 1.328125 46.796875 1.328125 48 3 C48 9.7311105 44.90762798 16.86030782 40.3359375 21.796875 C39.67464844 22.39242188 39.67464844 22.39242188 39 23 C36.74842333 21.91590753 34.73871477 20.81639417 32.6875 19.375 C29.01992191 17.4985647 27.1024041 17.39472726 23 18 C-0.06590094 28.28920091 -14.36549861 58.91374652 -23.28125 81.203125 C-24.23476429 83.78917134 -25.13737925 86.38239221 -26 89 C-26.25136719 89.7528125 -26.50273438 90.505625 -26.76171875 91.28125 C-27.24870617 92.74478892 -27.73568552 94.20833053 -28.22265625 95.671875 C-28.47917969 96.44015625 -28.73570312 97.2084375 -29 98 C-29.30808594 98.93328125 -29.61617187 99.8665625 -29.93359375 100.828125 C-32.22329378 107.4923103 -34.26279762 112.41681057 -40.375 116.3125 C-44.0134858 118.00627787 -46.05759789 118.46933358 -50 118 C-51 117 -51 117 -51.08984375 115.234375 C-50.24092276 101.39043276 -44.92662689 87.93171233 -40.81616211 74.79516602 C-37.28111414 63.49570596 -33.8066534 52.18419377 -30.5453186 40.80239868 C-30.14450312 39.40776526 -29.74010151 38.01415681 -29.33187866 36.62167358 C-26.35241021 26.47266343 -26.35241021 26.47266343 -26 16 C-28.97 16 -31.94 16 -35 16 C-35 14.68 -35 13.36 -35 12 C-26.73487288 4.41038808 -11.02049047 -1.18076684 0 0 Z " fill="#040404" transform="translate(1049,367)"/>
<path d="M0 0 C0.4251014 6.84116667 -1.15406373 13.1108232 -2.6875 19.75 C-2.95933105 20.94778076 -3.23116211 22.14556152 -3.51123047 23.37963867 C-6.87578942 38.05269044 -10.79642733 52.54798196 -15 67 C-15.72364746 67.0501123 -16.44729492 67.10022461 -17.19287109 67.15185547 C-35.80476604 68.42646604 -35.80476604 68.42646604 -54.35302734 70.39013672 C-58.59486607 70.91132185 -62.72759392 71.07747887 -67 71 C-65.63926727 66.06547472 -63.39223123 62.31734324 -60.375 58.25 C-59.70513062 57.33093872 -59.70513062 57.33093872 -59.02172852 56.39331055 C-55.16541117 51.13857112 -51.13645747 46.03674527 -47 41 C-46.28070313 40.10667969 -45.56140625 39.21335937 -44.8203125 38.29296875 C-40.40202925 32.82744535 -35.85258786 27.52543732 -31.11328125 22.3359375 C-29.21557683 20.2382901 -27.3865007 18.09896218 -25.5625 15.9375 C-11.09661805 -0.65274224 -11.09661805 -0.65274224 0 0 Z " fill="#F2F4EF" transform="translate(338,326)"/>
<path d="M0 0 C5.7609994 11.41253812 11.46043071 22.85310949 17 34.375 C17.45608643 35.31802979 17.91217285 36.26105957 18.38208008 37.23266602 C20.86144453 42.41443107 23.07335583 47.5876509 25 53 C8.70692403 55.72036179 -7.59365396 58.07531986 -24 60 C-26.04010939 55.92602145 -28.05367126 51.83948152 -30.0625 47.75 C-30.64322266 46.59113281 -31.22394531 45.43226563 -31.82226562 44.23828125 C-32.36689453 43.12324219 -32.91152344 42.00820312 -33.47265625 40.859375 C-33.98062744 39.83295898 -34.48859863 38.80654297 -35.01196289 37.74902344 C-36.05562873 34.84522373 -36.22435092 33.7818871 -35 31 C-32.99609375 28.66796875 -32.99609375 28.66796875 -30.4375 26.1875 C-29.53128906 25.30707031 -28.62507812 24.42664063 -27.69140625 23.51953125 C-24.83151953 20.8422788 -21.91039702 18.26039987 -18.93359375 15.71484375 C-16.84781799 13.86503454 -14.89358849 11.9236244 -12.9375 9.9375 C-3.11622807 0 -3.11622807 0 0 0 Z " fill="#FDFDFD" transform="translate(908,140)"/>
<path d="M0 0 C2.31 0 4.62 0 7 0 C7 19.14 7 38.28 7 58 C5.02 58 3.04 58 1 58 C0.67 56.68 0.34 55.36 0 54 C-0.70962891 54.54140625 -0.70962891 54.54140625 -1.43359375 55.09375 C-5.90973022 58.2348984 -9.31089879 59.76992973 -14.828125 59.41796875 C-19.93395543 58.43537189 -23.1248065 56.10550757 -26.375 52 C-30.21624476 44.90847122 -30.14399539 35.44974184 -28.50390625 27.63671875 C-26.68284905 22.99662386 -23.37892733 19.40081465 -19.109375 16.88671875 C-16.8242524 15.92612092 -15.15852192 15.66889027 -12.6875 15.625 C-11.96949219 15.59664062 -11.25148438 15.56828125 -10.51171875 15.5390625 C-8 16 -8 16 -1 20 C-0.67 13.4 -0.34 6.8 0 0 Z " fill="#131312" transform="translate(1264,614)"/>
<path d="M0 0 C2.31 0 4.62 0 7 0 C7 19.14 7 38.28 7 58 C5.02 58 3.04 58 1 58 C0.67 56.68 0.34 55.36 0 54 C-0.70962891 54.54140625 -0.70962891 54.54140625 -1.43359375 55.09375 C-5.90973022 58.2348984 -9.31089879 59.76992973 -14.828125 59.41796875 C-19.93395543 58.43537189 -23.1248065 56.10550757 -26.375 52 C-30.21624476 44.90847122 -30.14399539 35.44974184 -28.50390625 27.63671875 C-26.68284905 22.99662386 -23.37892733 19.40081465 -19.109375 16.88671875 C-16.8242524 15.92612092 -15.15852192 15.66889027 -12.6875 15.625 C-11.96949219 15.59664062 -11.25148438 15.56828125 -10.51171875 15.5390625 C-8 16 -8 16 -1 20 C-0.67 13.4 -0.34 6.8 0 0 Z " fill="#131312" transform="translate(890,614)"/>
<path d="M0 0 C1.98 0 3.96 0 6 0 C6 19.14 6 38.28 6 58 C4.35 58 2.7 58 1 58 C1 56.35 1 54.7 1 53 C0.46632813 53.433125 -0.06734375 53.86625 -0.6171875 54.3125 C-5.65234171 58.07579865 -9.35795738 59.88030284 -15.70703125 59.45703125 C-20.35832017 58.529943 -23.03585977 55.99092191 -26.25 52.6875 C-30.75209445 45.77356924 -30.79510531 38.04050249 -30 30 C-28.31153107 24.00401657 -24.97023188 20.56560113 -20 17 C-16.29712287 15.14856144 -12.04094612 15.5296908 -8 16 C-5.2412793 17.21141428 -3.14122175 18.85877825 -1 21 C-0.67 14.07 -0.34 7.14 0 0 Z " fill="#0A0A0A" transform="translate(1175,614)"/>
<path d="M0 0 C6.20394582 2.5079781 9.23326708 6.02385689 12 12 C14.54821758 19.64465275 13.48971864 27.6993483 10.20703125 34.9375 C7.79302549 39.06240305 4.26243437 41.12484403 0 43 C-2.11328125 43.3359375 -2.11328125 43.3359375 -4.3125 43.375 C-5.03050781 43.40335938 -5.74851563 43.43171875 -6.48828125 43.4609375 C-9 43 -9 43 -16 39 C-16.33 45.93 -16.66 52.86 -17 60 C-18.98 60 -20.96 60 -23 60 C-23 40.53 -23 21.06 -23 1 C-21.35 1 -19.7 1 -18 1 C-18 2.65 -18 4.3 -18 6 C-17.45472656 5.566875 -16.90945312 5.13375 -16.34765625 4.6875 C-10.94718362 0.69945867 -6.7523447 -1.58033599 0 0 Z " fill="#0C0C0B" transform="translate(237,630)"/>
<path d="M0 0 C5.37027854 3.78360534 9.4840738 8.35468376 10.75 14.9375 C11.45791706 23.30379256 10.87421569 30.13777822 5.4375 36.75 C0.20840974 41.00623625 -4.01277523 42.57374841 -10.71875 42.3515625 C-16.42706965 41.41779416 -20.11016891 38.37728664 -23.625 33.9375 C-27.47624536 26.82750856 -28.25974411 20.68604319 -26.85546875 12.69140625 C-25.10285905 6.8908335 -21.13807798 3.3374736 -16.25 -0.0625 C-10.88620867 -1.85043044 -5.36227662 -1.75305197 0 0 Z " fill="#10100F" transform="translate(821.25,631.0625)"/>
<path d="M0 0 C5.08706984 2.24912196 8.11555654 5.48172691 10.74609375 10.34765625 C12.96182173 16.9948402 13.08072018 26.60095158 10.05859375 33.03515625 C7.12749243 37.79303551 3.1311971 40.84483671 -2.25390625 42.34765625 C-9.37510209 42.92194624 -14.31869425 41.74919334 -20.00390625 37.09765625 C-26.18839368 29.53883828 -26.20061761 21.888403 -25.25390625 12.34765625 C-23.5179404 6.64510177 -19.43107434 3.19655448 -14.39453125 0.265625 C-9.85946625 -1.67915652 -4.68350346 -1.3555374 0 0 Z " fill="#F1F3EE" transform="translate(303.25390625,630.65234375)"/>
<path d="M0 0 C2.32484738 2.32484738 2.90677722 4.1179997 4.0625 7.1875 C6.44847392 13.109573 9.46411885 18.37681341 12.87719727 23.74682617 C16.63488793 29.7347107 18.69352378 34.65584969 17.66015625 41.6875 C16.4697405 45.85747708 14.31798954 49.21717006 11 52 C8.36 52.99 5.72 53.98 3 55 C2.67 62.92 2.34 70.84 2 79 C1.01 79 0.02 79 -1 79 C-1.33 71.08 -1.66 63.16 -2 55 C-4.31 54.34 -6.62 53.68 -9 53 C-14.26843217 48.68946459 -17.05857371 44.00876954 -17.875 37.25 C-17.71692947 29.52562009 -12.85642626 23.65471574 -8.77734375 17.4140625 C-5.79825866 12.81787324 -3.7328411 8.21985827 -1.8046875 3.08984375 C-1 1 -1 1 0 0 Z " fill="#FEBC04" transform="translate(782,258)"/>
<path d="M0 0 C3 1 3 1 4.359375 3.13525391 C5.04773438 4.54170166 5.04773438 4.54170166 5.75 5.9765625 C6.27070068 7.02884033 6.79140137 8.08111816 7.32788086 9.1652832 C7.87968018 10.30698975 8.43147949 11.44869629 9 12.625 C9.57306885 13.79184326 10.1461377 14.95868652 10.73657227 16.16088867 C12.50572164 19.76691001 14.25398283 23.38271975 16 27 C16.52319824 28.08071777 17.04639648 29.16143555 17.58544922 30.27490234 C20.36487964 36.02411042 23.11855506 41.78489531 25.84570312 47.55908203 C26.89626366 49.78063538 27.95487877 51.99814233 29.015625 54.21484375 C29.56734375 55.38144531 30.1190625 56.54804688 30.6875 57.75 C31.14511719 58.71421875 31.60273437 59.6784375 32.07421875 60.671875 C33 63 33 63 33 66 C14.02729627 68.72797893 -4.89114922 71.40759577 -24 73 C-29.28 62.11 -34.56 51.22 -40 40 C-33.26212817 32.13914953 -33.26212817 32.13914953 -30.546875 29.66796875 C-29.93585937 29.10537354 -29.32484375 28.54277832 -28.6953125 27.96313477 C-28.05335938 27.37717529 -27.41140625 26.79121582 -26.75 26.1875 C-17.57839791 17.71226836 -8.77906108 8.87868381 0 0 Z M-3.1328125 10.75390625 C-3.76687012 11.35436768 -4.40092773 11.9548291 -5.05419922 12.57348633 C-5.73756348 13.22986084 -6.42092773 13.88623535 -7.125 14.5625 C-8.56755776 15.93245023 -10.01027083 17.30223695 -11.453125 18.671875 C-12.19884766 19.38279297 -12.94457031 20.09371094 -13.71289062 20.82617188 C-17.4132934 24.34329253 -21.14549612 27.826299 -24.875 31.3125 C-26.20616273 32.55813058 -27.53692547 33.80418882 -28.8671875 35.05078125 C-29.42519043 35.57325439 -29.98319336 36.09572754 -30.55810547 36.6340332 C-31.72307769 37.73765995 -32.86528588 38.86528588 -34 40 C-33.62779049 43.88387106 -32.18856645 47.03731731 -30.49609375 50.51953125 C-30.00302734 51.54111328 -29.50996094 52.56269531 -29.00195312 53.61523438 C-28.48568359 54.67033203 -27.96941406 55.72542969 -27.4375 56.8125 C-26.65729492 58.42415039 -26.65729492 58.42415039 -25.86132812 60.06835938 C-24.5792955 62.71475699 -23.29203889 65.3584771 -22 68 C-16.7891583 67.32815347 -11.57882247 66.65254397 -6.36889648 65.97363281 C-4.60112299 65.74378846 -2.8332217 65.51492448 -1.06518555 65.28710938 C8.3362145 64.07505441 17.69533388 62.83450076 27 61 C24.32463622 54.03226997 21.31780106 47.30848687 18.015625 40.6171875 C17.55516785 39.67690704 17.09471069 38.73662659 16.62030029 37.76785278 C15.16691293 34.80189662 13.70855067 31.83841986 12.25 28.875 C11.25617869 26.84912103 10.26268603 24.82308081 9.26953125 22.796875 C6.85014702 17.86271438 4.42668734 12.9305726 2 8 C-0.68903642 8 -1.20772176 8.91525837 -3.1328125 10.75390625 Z " fill="#0D0D0D" transform="translate(906,132)"/>
<path d="M0 0 C3.30419154 2.30524991 4.74181057 4.34236082 6.6875 7.875 C7.02413684 10.62564877 7.15974142 12.94848366 7.078125 15.6796875 C7.07246521 16.4036673 7.06680542 17.12764709 7.06097412 17.87356567 C7.03873667 20.16640788 6.98856987 22.45763716 6.9375 24.75 C6.91741841 26.31247729 6.89917055 27.87497929 6.8828125 29.4375 C6.83891416 33.2506133 6.76997971 37.06253402 6.6875 40.875 C5.0375 40.875 3.3875 40.875 1.6875 40.875 C1.0275 39.555 0.3675 38.235 -0.3125 36.875 C-1.02212891 37.41640625 -1.02212891 37.41640625 -1.74609375 37.96875 C-6.97031331 41.63486899 -10.95801884 42.93408019 -17.3125 41.875 C-21.23675808 40.56691397 -22.82165088 39.5785504 -25.1875 36.1875 C-26.64252777 31.90325156 -26.88648014 29.39509362 -26.3125 24.875 C-23.27239526 20.85133196 -19.93615664 18.77631675 -15.3125 16.875 C-12.50531615 16.53679756 -9.75950461 16.58798989 -6.9375 16.6875 C-6.20144531 16.70103516 -5.46539063 16.71457031 -4.70703125 16.72851562 C-2.90853257 16.76355131 -1.11041578 16.81734712 0.6875 16.875 C0.584375 15.616875 0.48125 14.35875 0.375 13.0625 C0.31699219 12.35480469 0.25898437 11.64710938 0.19921875 10.91796875 C-0.45312591 8.31356986 -1.09597609 7.39856355 -3.3125 5.875 C-6.11313731 5.47334548 -6.11313731 5.47334548 -9.1875 5.625 C-10.73050781 5.64820313 -10.73050781 5.64820313 -12.3046875 5.671875 C-15.06314808 5.85816065 -17.62110236 6.25925589 -20.3125 6.875 C-20.6425 5.225 -20.9725 3.575 -21.3125 1.875 C-14.02547601 -1.01913719 -7.59988773 -2.58109394 0 0 Z " fill="#0E0E0E" transform="translate(1034.3125,631.125)"/>
<path d="M0 0 C3.05363911 2.05943103 4.68843439 3.70900584 6.6875 6.8125 C7.0303839 9.59778649 7.15779734 11.96780178 7.078125 14.73828125 C7.07246521 15.48587204 7.06680542 16.23346283 7.06097412 17.00370789 C7.03868468 19.37813911 6.98850656 21.75102938 6.9375 24.125 C6.91742519 25.74021249 6.89917613 27.35544877 6.8828125 28.97070312 C6.83884486 32.91855733 6.76987261 36.86526792 6.6875 40.8125 C5.0375 40.8125 3.3875 40.8125 1.6875 40.8125 C1.6875 39.1625 1.6875 37.5125 1.6875 35.8125 C1.07003906 36.245625 0.45257812 36.67875 -0.18359375 37.125 C-5.21077214 40.43054195 -9.15078495 42.73467977 -15.2734375 42.26953125 C-19.70803894 41.27556886 -22.38957192 38.95077796 -25.1875 35.5 C-26.7002643 31.88617417 -26.91645126 29.70463031 -26.3125 25.8125 C-23.53680466 21.2326027 -20.51518757 18.30827268 -15.3125 16.8125 C-12.50256055 16.67489278 -9.80248076 16.62238427 -7 16.6875 C-6.25943359 16.69652344 -5.51886719 16.70554687 -4.75585938 16.71484375 C-2.94126533 16.73825787 -1.12683929 16.77412385 0.6875 16.8125 C0.40640887 15.16482753 0.11231474 13.51936855 -0.1875 11.875 C-0.34992188 10.95847656 -0.51234375 10.04195312 -0.6796875 9.09765625 C-0.88851563 8.34355469 -1.09734375 7.58945312 -1.3125 6.8125 C-6.6856053 4.12594735 -14.56260101 5.81251757 -20.3125 6.8125 C-20.6425 5.1625 -20.9725 3.5125 -21.3125 1.8125 C-14.03968148 -1.0759953 -7.56024054 -2.71027491 0 0 Z " fill="#0D0D0D" transform="translate(1217.3125,631.1875)"/>
<path d="M0 0 C4.87679522 2.39239011 7.80955604 5.71568955 11 10 C12 13 12 13 12 23 C2.76 23 -6.48 23 -16 23 C-14.1525843 32.75415792 -14.1525843 32.75415792 -9 36 C-5.92780617 36.40022189 -5.92780617 36.40022189 -2.625 36.25 C-1.52414062 36.23453125 -0.42328125 36.2190625 0.7109375 36.203125 C3.87070125 36.0079852 6.89049086 35.58244582 10 35 C10.1875 37.375 10.1875 37.375 10 40 C4.36436922 43.75708719 -2.4010548 43.67316826 -9 43 C-14.40051133 41.23677335 -17.83038476 37.52802177 -21 33 C-24.14170953 26.71658093 -24.13985687 18.83310009 -22.16015625 12.17578125 C-19.88709533 7.05565412 -17.24381332 3.43208704 -12.24609375 0.77734375 C-8.11116316 -0.65370179 -4.29034724 -0.77154144 0 0 Z " fill="#101010" transform="translate(1125,630)"/>
<path d="M0 0 C1.62890625 1.16796875 1.62890625 1.16796875 3.62890625 4.16796875 C3.8005265 6.8539179 3.86115177 9.43341776 3.82421875 12.1171875 C3.82138885 12.88980423 3.81855896 13.66242096 3.81564331 14.45845032 C3.80445503 16.92428118 3.77935328 19.38974781 3.75390625 21.85546875 C3.74387468 23.52798954 3.73474914 25.20051603 3.7265625 26.87304688 C3.70452017 30.97149434 3.66999988 35.06966981 3.62890625 39.16796875 C1.97890625 38.83796875 0.32890625 38.50796875 -1.37109375 38.16796875 C-1.70109375 36.84796875 -2.03109375 35.52796875 -2.37109375 34.16796875 C-3.29921875 34.97234375 -4.22734375 35.77671875 -5.18359375 36.60546875 C-9.21363684 40.09817277 -12.89329697 40.50773549 -18.08203125 40.45703125 C-21.60119026 40.01263233 -23.71694555 38.43370502 -26.37109375 36.16796875 C-29.21069014 31.90857416 -28.9948161 28.16574398 -28.37109375 23.16796875 C-26.23490897 18.98460689 -23.38764235 17.16477607 -18.94140625 15.66015625 C-13.48508356 14.6153285 -7.89880264 14.95835058 -2.37109375 15.16796875 C-2.67891871 13.52125463 -2.99248609 11.87561299 -3.30859375 10.23046875 C-3.48261719 9.31394531 -3.65664063 8.39742187 -3.8359375 7.453125 C-4.14824363 5.21507031 -4.14824363 5.21507031 -5.37109375 4.16796875 C-7.28561192 4.06813191 -9.20397994 4.03829286 -11.12109375 4.04296875 C-12.1678125 4.04039062 -13.21453125 4.0378125 -14.29296875 4.03515625 C-17.10332497 4.15641527 -19.63748984 4.53012784 -22.37109375 5.16796875 C-22.70109375 3.51796875 -23.03109375 1.86796875 -23.37109375 0.16796875 C-14.91202111 -3.52326295 -8.34868737 -4.40203516 0 0 Z " fill="#0A0A0A" transform="translate(383.37109375,632.83203125)"/>
<path d="M0 0 C5.03313721 2.87473193 7.68000837 5.720881 9.7734375 11.12890625 C9.7734375 14.75890625 9.7734375 18.38890625 9.7734375 22.12890625 C0.5334375 22.12890625 -8.7065625 22.12890625 -18.2265625 22.12890625 C-16.02140944 30.62961808 -16.02140944 30.62961808 -10.2265625 35.12890625 C-7.04820893 35.6472072 -7.04820893 35.6472072 -3.7265625 35.44140625 C-2.623125 35.41691406 -1.5196875 35.39242187 -0.3828125 35.3671875 C2.42191756 35.15544427 5.0358127 34.75712985 7.7734375 34.12890625 C7.7734375 35.77890625 7.7734375 37.42890625 7.7734375 39.12890625 C1.80191075 42.31372052 -3.49739845 42.99905677 -10.2265625 42.12890625 C-15.59924936 40.46337332 -19.13231282 37.88929038 -22.2265625 33.12890625 C-22.75830078 32.31679688 -22.75830078 32.31679688 -23.30078125 31.48828125 C-25.74537088 25.25818784 -25.45564621 15.70950136 -23.28125 9.375 C-18.22743586 0.99965392 -9.58841079 -3.75125545 0 0 Z " fill="#0E0E0E" transform="translate(932.2265625,630.87109375)"/>
<path d="M0 0 C5.03313721 2.87473193 7.68000837 5.720881 9.7734375 11.12890625 C9.7734375 14.75890625 9.7734375 18.38890625 9.7734375 22.12890625 C0.5334375 22.12890625 -8.7065625 22.12890625 -18.2265625 22.12890625 C-16.02140944 30.62961808 -16.02140944 30.62961808 -10.2265625 35.12890625 C-7.04820893 35.6472072 -7.04820893 35.6472072 -3.7265625 35.44140625 C-2.623125 35.41691406 -1.5196875 35.39242187 -0.3828125 35.3671875 C2.42191756 35.15544427 5.0358127 34.75712985 7.7734375 34.12890625 C7.7734375 35.77890625 7.7734375 37.42890625 7.7734375 39.12890625 C1.80191075 42.31372052 -3.49739845 42.99905677 -10.2265625 42.12890625 C-15.59924936 40.46337332 -19.13231282 37.88929038 -22.2265625 33.12890625 C-22.75830078 32.31679688 -22.75830078 32.31679688 -23.30078125 31.48828125 C-25.74537088 25.25818784 -25.45564621 15.70950136 -23.28125 9.375 C-18.22743586 0.99965392 -9.58841079 -3.75125545 0 0 Z " fill="#0E0E0E" transform="translate(708.2265625,630.87109375)"/>
<path d="M0 0 C1.34771484 -0.00386719 1.34771484 -0.00386719 2.72265625 -0.0078125 C4.9375 0.125 4.9375 0.125 5.9375 1.125 C6.58576227 9.29310455 5.22278121 15.84330383 0.16015625 22.44140625 C-7.50029026 30.64393278 -18.18856129 38.10446147 -29.0625 41.125 C-30.3825 41.125 -31.7025 41.125 -33.0625 41.125 C-31.74220103 28.10355144 -23.15578329 14.54325945 -13.55859375 5.859375 C-8.90442529 2.18385192 -6.0096168 -0.01729386 0 0 Z " fill="#F1F3EE" transform="translate(966.0625,376.875)"/>
<path d="M0 0 C0.77601563 -0.00515625 1.55203125 -0.0103125 2.3515625 -0.015625 C4.375 0.25 4.375 0.25 6.375 2.25 C7.51842537 9.96812126 4.59555393 15.86441142 0.375 22.25 C-6.83075716 30.3737681 -19.22719648 40.71396999 -30.5625 41.4375 C-31.5834375 41.3446875 -31.5834375 41.3446875 -32.625 41.25 C-32.1092068 35.64892172 -30.62684027 31.42126845 -28.0625 26.4375 C-27.70679932 25.73898926 -27.35109863 25.04047852 -26.98461914 24.32080078 C-21.77394203 14.39471885 -12.63481458 -0.08451381 0 0 Z " fill="#F1F3EE" transform="translate(492.625,376.75)"/>
<path d="M0 0 C7.38914497 4.12417394 10.61387341 14.12626433 14 21.4375 C14.54978516 22.57896484 15.09957031 23.72042969 15.66601562 24.89648438 C18.52854189 31.05180482 20.44813471 35.68772207 19.6875 42.5 C18.0375 42.83 16.3875 43.16 14.6875 43.5 C12.7075 41.19 10.7275 38.88 8.6875 36.5 C7.59800049 36.93932861 6.50850098 37.37865723 5.38598633 37.83129883 C0.20120345 39.77153263 -5.09525699 40.98417603 -10.48828125 42.19921875 C-11.53525681 42.4391304 -12.58223236 42.67904205 -13.66093445 42.92622375 C-15.85969665 43.42880764 -18.05907599 43.9286985 -20.2590332 44.42602539 C-23.63325199 45.18936683 -27.00519701 45.96218919 -30.37695312 46.73632812 C-32.51810193 47.22451673 -34.65937377 47.71216606 -36.80078125 48.19921875 C-37.81014236 48.43041916 -38.81950348 48.66161957 -39.85945129 48.89982605 C-40.79439926 49.11037125 -41.72934723 49.32091644 -42.69262695 49.5378418 C-43.92551201 49.8173896 -43.92551201 49.8173896 -45.18330383 50.10258484 C-47.3125 50.5 -47.3125 50.5 -50.3125 50.5 C-50.8075 49.015 -50.8075 49.015 -51.3125 47.5 C-49.9925 47.5 -48.6725 47.5 -47.3125 47.5 C-39.2314843 46.27457297 -31.28954287 44.0612934 -23.375 42.0625 C-22.17681641 41.76279297 -20.97863281 41.46308594 -19.74414062 41.15429688 C-13.2776416 39.52974317 -6.83562338 37.84556279 -0.41967773 36.03100586 C1.6875 35.5 1.6875 35.5 3.6875 35.5 C3.34976563 34.71496094 3.01203125 33.92992187 2.6640625 33.12109375 C1.99503906 31.54521484 1.99503906 31.54521484 1.3125 29.9375 C0.87164063 28.90496094 0.43078125 27.87242187 -0.0234375 26.80859375 C-1.35341208 23.39499232 -2.35886243 20.03380653 -3.3125 16.5 C-16.38462553 25.39817169 -29.37671211 34.40481358 -42.3125 43.5 C-42.9725 43.17 -43.6325 42.84 -44.3125 42.5 C-36.04232472 36.05609323 -27.66668339 29.77337081 -19.2019043 23.58740234 C-13.82959887 19.65251633 -8.54813809 15.61493778 -3.3125 11.5 C-3.8075 10.51 -3.8075 10.51 -4.3125 9.5 C-4.38200541 7.95976004 -4.39702357 6.41665012 -4.375 4.875 C-4.36597656 4.05773437 -4.35695313 3.24046875 -4.34765625 2.3984375 C-4.33605469 1.77195313 -4.32445312 1.14546875 -4.3125 0.5 C-2.3125 -0.5 -2.3125 -0.5 0 0 Z " fill="#030303" transform="translate(860.3125,169.5)"/>
<path d="M0 0 C9.9 0 19.8 0 30 0 C30 1.98 30 3.96 30 6 C22.08 6 14.16 6 6 6 C6 11.94 6 17.88 6 24 C13.59 24 21.18 24 29 24 C29 25.65 29 27.3 29 29 C21.41 29 13.82 29 6 29 C6 35.6 6 42.2 6 49 C13.92 49 21.84 49 30 49 C30 50.98 30 52.96 30 55 C20.1 55 10.2 55 0 55 C0 36.85 0 18.7 0 0 Z " fill="#060606" transform="translate(132,617)"/>
<path d="M0 0 C5.08706984 2.24912196 8.11555654 5.48172691 10.74609375 10.34765625 C12.96182173 16.9948402 13.08072018 26.60095158 10.05859375 33.03515625 C7.12749243 37.79303551 3.1311971 40.84483671 -2.25390625 42.34765625 C-9.37510209 42.92194624 -14.31869425 41.74919334 -20.00390625 37.09765625 C-26.18839368 29.53883828 -26.20061761 21.888403 -25.25390625 12.34765625 C-23.5179404 6.64510177 -19.43107434 3.19655448 -14.39453125 0.265625 C-9.85946625 -1.67915652 -4.68350346 -1.3555374 0 0 Z M-17.25390625 9.34765625 C-20.11080397 14.7893662 -20.04449067 21.35956632 -19.25390625 27.34765625 C-17.70277833 31.06690349 -15.94319507 34.50301184 -12.25390625 36.34765625 C-6.93996364 36.94665139 -2.68006482 37.33723567 1.80859375 34.22265625 C5.66302834 28.50317266 6.47677699 23.10647625 5.74609375 16.34765625 C4.83944042 12.26771628 3.7083201 9.28072423 0.68359375 6.34765625 C-5.7863647 4.1451172 -12.5638477 3.77821173 -17.25390625 9.34765625 Z " fill="#0C0C0C" transform="translate(303.25390625,630.65234375)"/>
<path d="M0 0 C3.90219612 0.05633092 6.33392335 0.29804882 9.375 2.8125 C13.07992362 6.90741558 12.962125 9.93329679 13 15.25 C13.020625 15.96220703 13.04125 16.67441406 13.0625 17.40820312 C13.0962803 21.97276657 12.61055418 24.84892189 9.75 28.4375 C6.83590728 31.206191 4.8075992 31.86884422 0.8125 31.875 C-2.72033951 31.76573692 -4.12151132 31.51245173 -7.25 29.6875 C-11.16665184 25.28126668 -11.56612917 21.96135754 -11.625 16.0625 C-11.65335938 14.77601563 -11.68171875 13.48953125 -11.7109375 12.1640625 C-10.83068267 5.04742602 -7.21567241 0.16757709 0 0 Z " fill="#F2F4F0" transform="translate(812.25,635.5625)"/>
<path d="M0 0 C3.63128849 2.11825162 5.50219917 4.11487471 7 8 C7.30078125 11.4609375 7.30078125 11.4609375 7.3125 15.375 C7.32925781 16.66148437 7.34601563 17.94796875 7.36328125 19.2734375 C6.97553745 23.25093845 6.11953741 25.63455185 4 29 C-0.44776246 31.96517497 -4.78521883 31.76239491 -10 31 C-13.41311667 28.47429367 -14.66637768 27.00086696 -16 23 C-16.17431213 20.37960286 -16.27684435 17.80937916 -16.3125 15.1875 C-16.35600586 14.13852539 -16.35600586 14.13852539 -16.40039062 13.06835938 C-16.46280518 7.93596216 -15.36506524 5.0767859 -12 1 C-8.29778834 -0.85110583 -4.04093083 -0.46454795 0 0 Z " fill="#F1F3EE" transform="translate(1168,636)"/>
<path d="M0 0 C2.671875 0.4296875 2.671875 0.4296875 5.796875 2.8046875 C8.90889596 7.16151685 8.886966 10.51892837 8.921875 15.7421875 C8.9425 16.50208984 8.963125 17.26199219 8.984375 18.04492188 C9.01654176 22.67291437 8.68153947 25.68167077 5.671875 29.4296875 C1.22019469 32.39747437 -3.11352933 32.30641046 -8.328125 31.4296875 C-11.48163975 29.37990291 -12.99930994 26.72359612 -13.9296875 23.0625 C-14.9821211 16.10818388 -15.39634773 9.45668413 -11.328125 3.4296875 C-8.18211465 -0.59720575 -4.81020383 -0.11452866 0 0 Z " fill="#F2F4EF" transform="translate(1255.328125,635.5703125)"/>
<path d="M0 0 C2.671875 0.4296875 2.671875 0.4296875 5.796875 2.8046875 C8.90889596 7.16151685 8.886966 10.51892837 8.921875 15.7421875 C8.9425 16.50208984 8.963125 17.26199219 8.984375 18.04492188 C9.01654176 22.67291437 8.68153947 25.68167077 5.671875 29.4296875 C1.22019469 32.39747437 -3.11352933 32.30641046 -8.328125 31.4296875 C-11.48163975 29.37990291 -12.99930994 26.72359612 -13.9296875 23.0625 C-14.9821211 16.10818388 -15.39634773 9.45668413 -11.328125 3.4296875 C-8.18211465 -0.59720575 -4.81020383 -0.11452866 0 0 Z " fill="#F2F4EF" transform="translate(881.328125,635.5703125)"/>
<path d="M0 0 C3.63485929 2.12033459 5.48385031 4.12024577 7 8 C7.30078125 11.2421875 7.30078125 11.2421875 7.3125 14.875 C7.32925781 16.06867187 7.34601563 17.26234375 7.36328125 18.4921875 C6.88887707 23.07299343 5.34816915 26.16087907 2.6484375 29.84375 C-0.96549691 32.37864238 -5.82686389 31.6650173 -10 31 C-13.41311667 28.47429367 -14.66637768 27.00086696 -16 23 C-16.17431213 20.37960286 -16.27684435 17.80937916 -16.3125 15.1875 C-16.35600586 14.13852539 -16.35600586 14.13852539 -16.40039062 13.06835938 C-16.46280518 7.93596216 -15.36506524 5.0767859 -12 1 C-8.29778834 -0.85110583 -4.04093083 -0.46454795 0 0 Z " fill="#F2F4EF" transform="translate(236,636)"/>
<path d="M0 0 C4.74194284 1.69994177 7.28145428 3.77953284 10 8 C10.3428839 10.78528649 10.47029734 13.15530178 10.390625 15.92578125 C10.38496521 16.67337204 10.37930542 17.42096283 10.37347412 18.19120789 C10.35118468 20.56563911 10.30100656 22.93852938 10.25 25.3125 C10.22992519 26.92771249 10.21167613 28.54294877 10.1953125 30.15820312 C10.15134486 34.10605733 10.08237261 38.05276792 10 42 C8.02 42 6.04 42 4 42 C3.98541748 41.04633545 3.97083496 40.0926709 3.95581055 39.11010742 C3.89782208 35.57066415 3.82059042 32.03185676 3.73754883 28.49291992 C3.70430182 26.96144941 3.67626907 25.42985644 3.65356445 23.89819336 C3.62001282 21.69592113 3.5677009 19.49477088 3.51171875 17.29296875 C3.50532883 16.60849167 3.4989389 15.92401459 3.49235535 15.21879578 C3.40407774 12.36258525 3.31099099 10.43596197 1.62573242 8.07348633 C-2.03218639 5.65812831 -6.84490909 6.33785832 -11 7 C-14.41311667 9.52570633 -15.66637768 10.99913304 -17 15 C-17.15029988 17.06362991 -17.24844448 19.13123915 -17.31640625 21.19921875 C-17.35830078 22.40771484 -17.40019531 23.61621094 -17.44335938 24.86132812 C-17.48267578 26.12396484 -17.52199219 27.38660156 -17.5625 28.6875 C-17.62727539 30.59885742 -17.62727539 30.59885742 -17.69335938 32.54882812 C-17.7995486 35.69910852 -17.90159533 38.84946839 -18 42 C-19.98 42 -21.96 42 -24 42 C-24 28.47 -24 14.94 -24 1 C-22.35 1 -20.7 1 -19 1 C-18.34 2.32 -17.68 3.64 -17 5 C-16.52691406 4.6390625 -16.05382812 4.278125 -15.56640625 3.90625 C-10.34936985 0.24517182 -6.3486731 -1.0718539 0 0 Z " fill="#090909" transform="translate(605,630)"/>
<path d="M0 0 C1.98 0 3.96 0 6 0 C6.01458252 0.88260498 6.02916504 1.76520996 6.04418945 2.67456055 C6.10542067 5.96438643 6.1796033 9.2533993 6.26245117 12.54272461 C6.29560557 13.96351202 6.32366692 15.38442813 6.34643555 16.80541992 C6.38015847 18.8539082 6.43247745 20.9012272 6.48828125 22.94921875 C6.51446533 24.17987061 6.54064941 25.41052246 6.56762695 26.6784668 C7.03023846 30.23229491 7.81753186 32.17973594 10 35 C13.71177106 35.97678186 17.24290731 35.69758885 21 35 C24.41311667 32.47429367 25.66637768 31.00086696 27 27 C27.15029988 24.93637009 27.24844448 22.86876085 27.31640625 20.80078125 C27.35830078 19.59228516 27.40019531 18.38378906 27.44335938 17.13867188 C27.48267578 15.87603516 27.52199219 14.61339844 27.5625 13.3125 C27.60568359 12.03826172 27.64886719 10.76402344 27.69335938 9.45117188 C27.7995486 6.30089148 27.90159533 3.15053161 28 0 C29.98 0 31.96 0 34 0 C34 13.53 34 27.06 34 41 C32.35 41 30.7 41 29 41 C28.34 39.68 27.68 38.36 27 37 C26.29037109 37.54140625 26.29037109 37.54140625 25.56640625 38.09375 C20.34936985 41.75482818 16.3486731 43.0718539 10 42 C5.25805716 40.30005823 2.71854572 38.22046716 0 34 C-0.3428839 31.21471351 -0.47029734 28.84469822 -0.390625 26.07421875 C-0.38496521 25.32662796 -0.37930542 24.57903717 -0.37347412 23.80879211 C-0.35118468 21.43436089 -0.30100656 19.06147062 -0.25 16.6875 C-0.22992519 15.07228751 -0.21167613 13.45705123 -0.1953125 11.84179688 C-0.15134486 7.89394267 -0.08237261 3.94723208 0 0 Z " fill="#070707" transform="translate(534,631)"/>
<path d="M0 0 C4.74194284 1.69994177 7.28145428 3.77953284 10 8 C10.3428839 10.78528649 10.47029734 13.15530178 10.390625 15.92578125 C10.38496521 16.67337204 10.37930542 17.42096283 10.37347412 18.19120789 C10.35118468 20.56563911 10.30100656 22.93852938 10.25 25.3125 C10.22992519 26.92771249 10.21167613 28.54294877 10.1953125 30.15820312 C10.15134486 34.10605733 10.08237261 38.05276792 10 42 C8.02 42 6.04 42 4 42 C3.98541748 41.04633545 3.97083496 40.0926709 3.95581055 39.11010742 C3.89782208 35.57066415 3.82059042 32.03185676 3.73754883 28.49291992 C3.70430182 26.96144941 3.67626907 25.42985644 3.65356445 23.89819336 C3.62001282 21.69592113 3.5677009 19.49477088 3.51171875 17.29296875 C3.50532883 16.60849167 3.4989389 15.92401459 3.49235535 15.21879578 C3.40407774 12.36258525 3.31099099 10.43596197 1.62573242 8.07348633 C-2.03218639 5.65812831 -6.84490909 6.33785832 -11 7 C-14.41311667 9.52570633 -15.66637768 10.99913304 -17 15 C-17.15029988 17.06362991 -17.24844448 19.13123915 -17.31640625 21.19921875 C-17.35830078 22.40771484 -17.40019531 23.61621094 -17.44335938 24.86132812 C-17.48267578 26.12396484 -17.52199219 27.38660156 -17.5625 28.6875 C-17.62727539 30.59885742 -17.62727539 30.59885742 -17.69335938 32.54882812 C-17.7995486 35.69910852 -17.90159533 38.84946839 -18 42 C-19.98 42 -21.96 42 -24 42 C-24 28.47 -24 14.94 -24 1 C-22.35 1 -20.7 1 -19 1 C-18.34 2.32 -17.68 3.64 -17 5 C-16.52691406 4.6390625 -16.05382812 4.278125 -15.56640625 3.90625 C-10.34936985 0.24517182 -6.3486731 -1.0718539 0 0 Z " fill="#090909" transform="translate(491,630)"/>
<path d="M0 0 C1.98 0 3.96 0 6 0 C6.01458252 0.88260498 6.02916504 1.76520996 6.04418945 2.67456055 C6.10542067 5.96438643 6.1796033 9.2533993 6.26245117 12.54272461 C6.29560557 13.96351202 6.32366692 15.38442813 6.34643555 16.80541992 C6.38015847 18.8539082 6.43247745 20.9012272 6.48828125 22.94921875 C6.51446533 24.17987061 6.54064941 25.41052246 6.56762695 26.6784668 C7.03023846 30.23229491 7.81753186 32.17973594 10 35 C13.71177106 35.97678186 17.24290731 35.69758885 21 35 C24.41311667 32.47429367 25.66637768 31.00086696 27 27 C27.15029988 24.93637009 27.24844448 22.86876085 27.31640625 20.80078125 C27.35830078 19.59228516 27.40019531 18.38378906 27.44335938 17.13867188 C27.48267578 15.87603516 27.52199219 14.61339844 27.5625 13.3125 C27.60568359 12.03826172 27.64886719 10.76402344 27.69335938 9.45117188 C27.7995486 6.30089148 27.90159533 3.15053161 28 0 C29.98 0 31.96 0 34 0 C34 13.53 34 27.06 34 41 C32.35 41 30.7 41 29 41 C28.34 39.68 27.68 38.36 27 37 C26.29037109 37.54140625 26.29037109 37.54140625 25.56640625 38.09375 C20.34936985 41.75482818 16.3486731 43.0718539 10 42 C5.25805716 40.30005823 2.71854572 38.22046716 0 34 C-0.3428839 31.21471351 -0.47029734 28.84469822 -0.390625 26.07421875 C-0.38496521 25.32662796 -0.37930542 24.57903717 -0.37347412 23.80879211 C-0.35118468 21.43436089 -0.30100656 19.06147062 -0.25 16.6875 C-0.22992519 15.07228751 -0.21167613 13.45705123 -0.1953125 11.84179688 C-0.15134486 7.89394267 -0.08237261 3.94723208 0 0 Z " fill="#070707" transform="translate(420,631)"/>
<path d="M0 0 C3.203125 -0.36328125 3.203125 -0.36328125 7 0 C9.546875 2.51953125 9.546875 2.51953125 11.75 5.8125 C15.01266812 10.7122717 15.01266812 10.7122717 19 15 C19.26425781 14.28457031 19.52851563 13.56914063 19.80078125 12.83203125 C21.81974685 8.06411575 24.42006186 3.75893505 28 0 C31.9375 -0.625 31.9375 -0.625 35 0 C33.83523993 2.69981958 32.34723483 4.94695661 30.58203125 7.27734375 C29.90817383 8.17163086 29.90817383 8.17163086 29.22070312 9.08398438 C28.27946737 10.32286472 27.32884485 11.55466753 26.36914062 12.77929688 C23.67122415 16.24755062 23.67122415 16.24755062 23.20361328 20.45239258 C24.04306006 23.1377473 25.06573457 24.90826508 26.72265625 27.171875 C27.52993164 28.29142578 27.52993164 28.29142578 28.35351562 29.43359375 C28.91748047 30.19800781 29.48144531 30.96242188 30.0625 31.75 C31.18022176 33.28512297 32.29620817 34.8215115 33.41015625 36.359375 C33.90652588 37.03452148 34.40289551 37.70966797 34.91430664 38.40527344 C36 40 36 40 36 41 C32.83984375 41.4296875 32.83984375 41.4296875 29 41 C26.6834314 39.04252566 25.17948773 36.67131966 23.5625 34.125 C23.11712891 33.47402344 22.67175781 32.82304688 22.21289062 32.15234375 C19 27.36508737 19 27.36508737 19 25 C14.72079734 28.90916075 12.17984329 33.53948662 9.29296875 38.515625 C7 41 7 41 3.23828125 41.359375 C2.16964844 41.24078125 1.10101563 41.1221875 0 41 C1.79584935 35.30584353 5.64022872 31.07974455 9.36328125 26.52734375 C10.75572716 24.72770739 11.98051714 23.03431319 13 21 C12.38526532 16.23205785 8.24514539 12.0307245 5.375 8.25 C0 1.1146875 0 1.1146875 0 0 Z " fill="#0A0A0A" transform="translate(169,631)"/>
<path d="M0 0 C0.33 0 0.66 0 1 0 C1.12375 0.57105469 1.2475 1.14210938 1.375 1.73046875 C2.8044525 7.35000388 4.99399452 11.80985276 8.1875 16.625 C12.58866541 23.5353169 12.58866541 23.5353169 12.8125 27.4375 C11.76468065 32.03178484 10.39473191 33.76316259 7 37 C3.27348227 38.24217258 -0.12942074 38.5341253 -4 38 C-7.13180809 36.37609951 -9.24339744 34.99733974 -11.375 32.1875 C-12.74121241 27.40575656 -12.51651658 23.95073701 -10.13671875 19.5703125 C-9.33330515 18.41274849 -8.51638838 17.26446124 -7.6875 16.125 C-4.07620214 10.87946892 -1.61111142 6.22963082 0 0 Z " fill="#FFBC06" transform="translate(832,299)"/>
<path d="M0 0 C1 3 1 3 0 6 C-0.51175781 5.83757813 -1.02351562 5.67515625 -1.55078125 5.5078125 C-4.79263418 4.83565798 -7.87891466 4.86814283 -11.1875 4.875 C-12.43917969 4.87242187 -13.69085937 4.86984375 -14.98046875 4.8671875 C-17.87927536 4.654158 -17.87927536 4.654158 -19 6 C-19.04080783 7.99958364 -19.04254356 10.00045254 -19 12 C-17.88625 12.556875 -16.7725 13.11375 -15.625 13.6875 C-14.90183594 14.05101562 -14.17867187 14.41453125 -13.43359375 14.7890625 C-11.74439772 15.62959343 -10.04853862 16.45681356 -8.34765625 17.2734375 C-7.46980469 17.69882812 -6.59195313 18.12421875 -5.6875 18.5625 C-4.86636719 18.95566406 -4.04523437 19.34882812 -3.19921875 19.75390625 C-0.9814453 21.01051323 0.47216589 21.9612813 2 24 C2.69009615 27.39297273 2.57699153 30.59248397 2 34 C-0.99116424 38.2228201 -3.97578058 39.95723748 -9 41 C-15.0739066 41.47263843 -20.2511563 40.99959781 -26 39 C-26 37.02 -26 35.04 -26 33 C-25.14921875 33.16242187 -24.2984375 33.32484375 -23.421875 33.4921875 C-19.97763612 34.00331884 -16.72946963 34.13301721 -13.25 34.125 C-11.55617188 34.12886719 -11.55617188 34.12886719 -9.828125 34.1328125 C-7.04978888 34.19354612 -7.04978888 34.19354612 -5 33 C-5 30.69 -5 28.38 -5 26 C-6.11375 25.443125 -7.2275 24.88625 -8.375 24.3125 C-9.09816406 23.94898438 -9.82132813 23.58546875 -10.56640625 23.2109375 C-12.25560228 22.37040657 -13.95146138 21.54318644 -15.65234375 20.7265625 C-16.53019531 20.30117188 -17.40804687 19.87578125 -18.3125 19.4375 C-19.13363281 19.04433594 -19.95476563 18.65117188 -20.80078125 18.24609375 C-23.01825334 16.98965752 -24.4694621 16.03590419 -26 14 C-26.74564502 10.58968555 -26.68703142 7.41879919 -26 4 C-20.16794114 -4.12453483 -8.35187503 -3.37628991 0 0 Z " fill="#101010" transform="translate(784,632)"/>
<path d="M0 0 C2.31 0 4.62 0 7 0 C8.57277973 4.2152474 10.13917792 8.43278979 11.69970703 12.65258789 C12.2314862 14.08780763 12.7650041 15.52238439 13.30029297 16.95629883 C14.06936227 19.01737601 14.83215096 21.08068392 15.59375 23.14453125 C15.83436157 23.78526077 16.07497314 24.4259903 16.32287598 25.08613586 C17.34897405 27.88352941 18 29.99163868 18 33 C18.66 33 19.32 33 20 33 C20.23460937 31.77410156 20.46921875 30.54820312 20.7109375 29.28515625 C22.08213029 23.1147887 24.35429164 17.32360183 26.625 11.4375 C27.04523437 10.33341797 27.46546875 9.22933594 27.8984375 8.09179688 C28.92678976 5.39237219 29.9607405 2.69523999 31 0 C33.31 0 35.62 0 38 0 C33.26596944 13.77307016 28.25696181 27.41797097 23 41 C20.36 41 17.72 41 15 41 C12.85950944 35.48406209 10.723375 29.96646519 8.59130859 24.44726562 C7.86497388 22.5688698 7.13743851 20.69093779 6.40869141 18.81347656 C5.36306871 16.11904201 4.32173661 13.42298386 3.28125 10.7265625 C2.95314331 9.88380768 2.62503662 9.04105286 2.2869873 8.17276001 C1.98667603 7.39210175 1.68636475 6.61144348 1.37695312 5.80712891 C1.11047974 5.11873932 0.84400635 4.43034973 0.56945801 3.72109985 C0 2 0 2 0 0 Z " fill="#0B0B0B" transform="translate(641,631)"/>
<path d="M0 0 C2.31 0 4.62 0 7 0 C8.44030165 3.81144735 9.8767239 7.62434581 11.3125 11.4375 C11.91868164 13.04141602 11.91868164 13.04141602 12.53710938 14.67773438 C13.13168945 16.25844727 13.13168945 16.25844727 13.73828125 17.87109375 C14.09962158 18.82943115 14.46096191 19.78776855 14.83325195 20.77514648 C16.29793472 24.82348184 17.6385921 28.91577629 19 33 C22.96 22.11 26.92 11.22 31 0 C33.31 0 35.62 0 38 0 C35.57756953 8.94829908 32.19347429 17.50880915 28.8125 26.125 C28.24769143 27.57277805 27.68323563 29.02069378 27.11914062 30.46875 C25.75015196 33.98076571 24.37641585 37.49088884 23 41 C20.36 41 17.72 41 15 41 C13.18391595 36.12581056 11.36917977 31.25112218 9.55566406 26.37597656 C8.93916805 24.71926481 8.32231075 23.06268745 7.70507812 21.40625 C6.81544376 19.01858616 5.9271308 16.6304342 5.0390625 14.2421875 C4.76502594 13.50757294 4.49098938 12.77295837 4.20864868 12.01608276 C2.72934254 8.03359981 1.31703647 4.04002327 0 0 Z " fill="#0B0B0B" transform="translate(966,631)"/>
<path d="M0 0 C1.8871875 0.061875 1.8871875 0.061875 3.8125 0.125 C3.8125 2.105 3.8125 4.085 3.8125 6.125 C3.22082031 6.13917969 2.62914062 6.15335938 2.01953125 6.16796875 C-2.34033955 6.43112572 -4.60628953 6.66745133 -8.125 9.4375 C-11.48389544 13.81424254 -12.43837534 16.6547614 -12.6015625 22.203125 C-12.65957031 23.94335938 -12.65957031 23.94335938 -12.71875 25.71875 C-12.7496875 26.9253125 -12.780625 28.131875 -12.8125 29.375 C-12.85117187 30.59703125 -12.88984375 31.8190625 -12.9296875 33.078125 C-13.02392108 36.0935994 -13.10953455 39.10906828 -13.1875 42.125 C-15.1675 42.125 -17.1475 42.125 -19.1875 42.125 C-19.1875 28.595 -19.1875 15.065 -19.1875 1.125 C-17.2075 1.125 -15.2275 1.125 -13.1875 1.125 C-12.8575 3.105 -12.5275 5.085 -12.1875 7.125 C-11.424375 6.34125 -10.66125 5.5575 -9.875 4.75 C-6.53812273 1.49072453 -4.64562136 -0.15231545 0 0 Z " fill="#0A0A0A" transform="translate(345.1875,629.875)"/>
<path d="M0 0 C1.98 0 3.96 0 6 0 C6 19.14 6 38.28 6 58 C4.02 58 2.04 58 0 58 C0 38.86 0 19.72 0 0 Z " fill="#090909" transform="translate(261,614)"/>
<path d="M0 0 C0 1.98 0 3.96 0 6 C-0.59167969 6.02578125 -1.18335938 6.0515625 -1.79296875 6.078125 C-7.01460645 6.45292444 -10.30309802 6.96701602 -14 11 C-15.85399039 14.7896417 -16.2900535 17.98014358 -16.4140625 22.17578125 C-16.45273438 23.33271484 -16.49140625 24.48964844 -16.53125 25.68164062 C-16.57765625 27.47891602 -16.57765625 27.47891602 -16.625 29.3125 C-16.66367188 30.53001953 -16.70234375 31.74753906 -16.7421875 33.00195312 C-16.83628002 36.00115228 -16.92192209 39.00034823 -17 42 C-18.98 42 -20.96 42 -23 42 C-23 28.47 -23 14.94 -23 1 C-21.35 1 -19.7 1 -18 1 C-18 3.31 -18 5.62 -18 8 C-17.34 8 -16.68 8 -16 8 C-15.79375 7.4225 -15.5875 6.845 -15.375 6.25 C-11.57975868 0.03960512 -6.62018158 -0.45656425 0 0 Z " fill="#0A0A09" transform="translate(1077,630)"/>
<path d="M0 0 C0 1.98 0 3.96 0 6 C-0.59167969 6.02578125 -1.18335938 6.0515625 -1.79296875 6.078125 C-7.0359263 6.45445474 -10.23949994 7.01159084 -14 11 C-16.15542521 14.40631606 -16.30117798 17.30828858 -16.4140625 21.296875 C-16.45273437 22.50214844 -16.49140625 23.70742188 -16.53125 24.94921875 C-16.57765625 26.83060547 -16.57765625 26.83060547 -16.625 28.75 C-16.68300781 30.65458984 -16.68300781 30.65458984 -16.7421875 32.59765625 C-16.83644222 35.7316257 -16.92205166 38.86558949 -17 42 C-18.98 42 -20.96 42 -23 42 C-23 28.47 -23 14.94 -23 1 C-21.35 1 -19.7 1 -18 1 C-18 3.31 -18 5.62 -18 8 C-17.34 8 -16.68 8 -16 8 C-15.79375 7.4225 -15.5875 6.845 -15.375 6.25 C-11.57975868 0.03960512 -6.62018158 -0.45656425 0 0 Z " fill="#040404" transform="translate(752,630)"/>
<path d="M0 0 C3 1 3 1 4.16674805 2.77832031 C4.52808838 3.53725586 4.88942871 4.29619141 5.26171875 5.078125 C5.65810547 5.90957031 6.05449219 6.74101562 6.46289062 7.59765625 C6.86701172 8.47292969 7.27113281 9.34820312 7.6875 10.25 C8.10322266 11.10980469 8.51894531 11.96960938 8.94726562 12.85546875 C10.96345973 17.15271005 12.25382657 20.17889147 12 25 C7.06082012 26.21095573 2.12101057 27.41930088 -2.81933594 28.62548828 C-4.49105009 29.03399466 -6.1626063 29.44314809 -7.83398438 29.85302734 C-16.88616894 32.0724485 -25.94610647 34.25002274 -35.0390625 36.296875 C-35.7964975 36.46930725 -36.5539325 36.6417395 -37.33432007 36.81939697 C-40.28788072 37.47621505 -42.96392079 38 -46 38 C-46.495 36.515 -46.495 36.515 -47 35 C-45.68 35 -44.36 35 -43 35 C-34.9189843 33.77457297 -26.97704287 31.5612934 -19.0625 29.5625 C-17.86431641 29.26279297 -16.66613281 28.96308594 -15.43164062 28.65429688 C-8.9651416 27.02974317 -2.52312338 25.34556279 3.89282227 23.53100586 C6 23 6 23 8 23 C7.66226563 22.21496094 7.32453125 21.42992187 6.9765625 20.62109375 C6.53054688 19.57050781 6.08453125 18.51992187 5.625 17.4375 C5.18414063 16.40496094 4.74328125 15.37242187 4.2890625 14.30859375 C2.95908792 10.89499232 1.95363757 7.53380653 1 4 C-12.07212553 12.89817169 -25.06421211 21.90481358 -38 31 C-38.66 30.67 -39.32 30.34 -40 30 C-30.20584795 22.36864993 -20.25587557 14.96087841 -10.22021484 7.65039062 C-8.71153674 6.52891888 -7.22259276 5.38050624 -5.75244141 4.20898438 C-5.04651855 3.65017578 -4.3405957 3.09136719 -3.61328125 2.515625 C-2.98848877 2.00805664 -2.36369629 1.50048828 -1.7199707 0.97753906 C-0.86858521 0.49365723 -0.86858521 0.49365723 0 0 Z " fill="#212121" transform="translate(856,182)"/>
<path d="M0 0 C1.53394043 2.30091065 2.74228627 4.40777165 3.9375 6.875 C5.10468 9.27056045 6.26610589 11.39915884 7.75 13.625 C9.38655337 16.7344514 9.5779692 18.53218479 9 22 C6.39210172 25.63525215 4.9297642 26.83397068 0.5 27.625 C-3.95850936 26.82883761 -5.40783917 25.69186542 -8 22 C-9.34457628 16.50964686 -7.36695188 13.54358889 -4.5625 8.75 C-3.92441406 7.73421875 -3.28632812 6.7184375 -2.62890625 5.671875 C-0.89057723 3.04476754 -0.89057723 3.04476754 0 0 Z " fill="#FFBC07" transform="translate(812,237)"/>
<path d="M0 0 C1.63001953 0.01353516 1.63001953 0.01353516 3.29296875 0.02734375 C4.12441406 0.03894531 4.95585937 0.05054688 5.8125 0.0625 C6.43358626 7.98134984 6.43358626 7.98134984 4.125 12 C0.77931369 14.98399049 -1.76951403 15.88525175 -6.1875 16.4375 C-10.07722696 15.95128413 -11.61392159 15.01454582 -14.1875 12.0625 C-14.8125 8.5625 -14.8125 8.5625 -14.1875 5.0625 C-9.79951209 0.55591782 -6.09353675 -0.0655219 0 0 Z " fill="#EBEDE8" transform="translate(375.1875,651.9375)"/>
<path d="M0 0 C1.76923828 0.01353516 1.76923828 0.01353516 3.57421875 0.02734375 C4.47785156 0.03894531 5.38148437 0.05054688 6.3125 0.0625 C6.76925183 5.77189788 5.93355556 8.61377459 2.3125 13.0625 C-1.05101013 15.30484009 -2.31060056 15.33348215 -6.25 15.3125 C-7.22066406 15.31765625 -8.19132813 15.3228125 -9.19140625 15.328125 C-11.6875 15.0625 -11.6875 15.0625 -13.6875 13.0625 C-14.37253937 5.98375984 -14.37253937 5.98375984 -11.875 2.625 C-7.95507389 -0.17494722 -4.68492525 -0.0463854 0 0 Z " fill="#EDEFEA" transform="translate(1028.6875,651.9375)"/>
<path d="M0 0 C1.18851563 0.00902344 2.37703125 0.01804687 3.6015625 0.02734375 C4.51679687 0.03894531 5.43203125 0.05054688 6.375 0.0625 C6.68830487 5.28424778 6.25515136 8.63941041 3.375 13.0625 C0.34330146 15.00437227 -2.11875687 15.35885184 -5.6875 15.375 C-6.97333984 15.40013672 -6.97333984 15.40013672 -8.28515625 15.42578125 C-10.625 15.0625 -10.625 15.0625 -12.40234375 13.7578125 C-14.49607852 10.85467866 -14.10754754 8.50065122 -13.625 5.0625 C-9.13888807 0.57638807 -6.19153458 -0.06070132 0 0 Z " fill="#EFF1EC" transform="translate(1211.625,651.9375)"/>
<path d="M0 0 C1.98 0 3.96 0 6 0 C6 13.53 6 27.06 6 41 C4.02 41 2.04 41 0 41 C0 27.47 0 13.94 0 0 Z " fill="#040404" transform="translate(1085,631)"/>
<path d="M0 0 C1.98 0 3.96 0 6 0 C6 13.53 6 27.06 6 41 C4.02 41 2.04 41 0 41 C0 27.47 0 13.94 0 0 Z " fill="#040404" transform="translate(628,631)"/>
<path d="M0 0 C3.77975423 0.81925707 5.27679238 2.32854914 7.37890625 5.515625 C7.70890625 7.825625 8.03890625 10.135625 8.37890625 12.515625 C1.11890625 12.515625 -6.14109375 12.515625 -13.62109375 12.515625 C-12.36897195 5.00289421 -12.36897195 5.00289421 -9.34375 1.66015625 C-6.35816282 -0.32346517 -3.49427438 -0.22913275 0 0 Z " fill="#E4E6E1" transform="translate(927.62109375,635.484375)"/>
<path d="M0 0 C3.77975423 0.81925707 5.27679238 2.32854914 7.37890625 5.515625 C7.70890625 7.825625 8.03890625 10.135625 8.37890625 12.515625 C1.11890625 12.515625 -6.14109375 12.515625 -13.62109375 12.515625 C-12.36897195 5.00289421 -12.36897195 5.00289421 -9.34375 1.66015625 C-6.35816282 -0.32346517 -3.49427438 -0.22913275 0 0 Z " fill="#E4E6E1" transform="translate(703.62109375,635.484375)"/>
<path d="M0 0 C2.62169359 0.60599803 3.69776158 1.21575468 5.5078125 3.17578125 C7.3828125 6.55078125 7.3828125 6.55078125 7.3828125 12.55078125 C0.4528125 12.55078125 -6.4771875 12.55078125 -13.6171875 12.55078125 C-12.6171875 5.55078125 -12.6171875 5.55078125 -10.6796875 2.61328125 C-6.92068564 0.08170857 -4.46629486 -0.23331391 0 0 Z " fill="#E6E8E4" transform="translate(1122.6171875,635.44921875)"/>
<path d="M0 0 C0.99 0 1.98 0 3 0 C3 8.25 3 16.5 3 25 C2.01 25 1.02 25 0 25 C0 16.75 0 8.5 0 0 Z " fill="#020200" transform="translate(781,312)"/>
<path d="M0 0 C2.61166457 3.21751599 4.35695792 6.56113939 6.13671875 10.296875 C6.42102249 10.89050842 6.70532623 11.48414185 6.99824524 12.09576416 C7.89880265 13.97856606 8.79322819 15.86420582 9.6875 17.75 C10.29972649 19.03274485 10.91235256 20.31529907 11.52539062 21.59765625 C13.02155749 24.72957813 14.51224186 27.86407341 16 31 C15.01 31.33 14.02 31.66 13 32 C11.1387661 28.09019032 9.28768699 24.17578377 7.44580078 20.25683594 C6.81802728 18.92480234 6.18751505 17.59405587 5.55419922 16.26464844 C4.64344828 14.35164255 3.74270262 12.43419797 2.84375 10.515625 C2.29912109 9.36352539 1.75449219 8.21142578 1.19335938 7.02441406 C0 4 0 4 0 0 Z " fill="#DEE0DC" transform="translate(866,172)"/>
<path d="M0 0 C0 0.33 0 0.66 0 1 C-4.43634709 2.0051621 -8.87425658 3.00324731 -13.3125 4 C-14.57513672 4.28617188 -15.83777344 4.57234375 -17.13867188 4.8671875 C-18.34716797 5.13789063 -19.55566406 5.40859375 -20.80078125 5.6875 C-21.91622314 5.93886719 -23.03166504 6.19023437 -24.1809082 6.44921875 C-27 7 -27 7 -30 7 C-30.33 6.01 -30.66 5.02 -31 4 C-29.68 4 -28.36 4 -27 4 C-21.63442371 3.1870339 -16.44628881 1.85791741 -11.25 0.3125 C-7.15184813 -0.85009628 -4.18401273 -1.24389568 0 0 Z " fill="#444443" transform="translate(840,213)"/>
<path d="M0 0 C0.33 0.66 0.66 1.32 1 2 C-1.68533564 2.67662 -4.372725 3.34146121 -7.0625 4 C-8.19075195 4.28617188 -8.19075195 4.28617188 -9.34179688 4.578125 C-14.02773336 5.7141096 -18.17932546 6.20486266 -23 6 C-22 4 -22 4 -20.18994141 3.2980957 C-17.67027157 2.62753417 -15.15104499 1.95874037 -12.625 1.3125 C-11.7484375 1.07466797 -10.871875 0.83683594 -9.96875 0.59179688 C-9.12570312 0.37201172 -8.28265625 0.15222656 -7.4140625 -0.07421875 C-6.6401416 -0.27619873 -5.8662207 -0.47817871 -5.06884766 -0.6862793 C-3 -1 -3 -1 0 0 Z " fill="#262626" transform="translate(860,207)"/>
<path d="M0 0 C0.33 0 0.66 0 1 0 C1.42014232 6.09206361 1.06715472 9.11941433 -3 14 C-6.6441774 16.4294516 -8.71241272 16.16179575 -13 16 C-12 14 -12 14 -9.75 13.25 C-4.95240396 11.06927453 -2.56266563 7.44685448 -0.6875 2.625 C-0.460625 1.75875 -0.23375 0.8925 0 0 Z " fill="#FFF6DF" transform="translate(795,293)"/>
<path d="M0 0 C1.67542976 0.28604898 3.34385343 0.61781233 5 1 C5.625 3.375 5.625 3.375 6 6 C5.34 6.66 4.68 7.32 4 8 C1.375 7.625 1.375 7.625 -1 7 C-1.04254356 5.00045254 -1.04080783 2.99958364 -1 1 C-0.67 0.67 -0.34 0.34 0 0 Z " fill="#0C0C0C" transform="translate(1086,616)"/>
<path d="M0 0 C1.67542976 0.28604898 3.34385343 0.61781233 5 1 C5.625 3.375 5.625 3.375 6 6 C5.34 6.66 4.68 7.32 4 8 C1.375 7.625 1.375 7.625 -1 7 C-1.04254356 5.00045254 -1.04080783 2.99958364 -1 1 C-0.67 0.67 -0.34 0.34 0 0 Z " fill="#0C0C0C" transform="translate(629,616)"/>
<path d="M0 0 C0 0.66 0 1.32 0 2 C-1.80361851 3.34160786 -3.67065433 4.59846897 -5.5625 5.8125 C-10.12553787 8.77712461 -14.59993651 11.79995383 -19 15 C-19.66 14.67 -20.32 14.34 -21 14 C-18.96022417 12.41418022 -16.91826692 10.83131092 -14.875 9.25 C-14.30523438 8.8065625 -13.73546875 8.363125 -13.1484375 7.90625 C-2.91681985 0 -2.91681985 0 0 0 Z " fill="#272727" transform="translate(837,198)"/>
<path d="M0 0 C0.66 0.33 1.32 0.66 2 1 C0.6390377 5.08288689 -1.47953322 5.88685817 -5.0625 8.1875 C-6.16722656 8.90292969 -7.27195312 9.61835938 -8.41015625 10.35546875 C-9.26480469 10.89816406 -10.11945312 11.44085938 -11 12 C-11.66 11.34 -12.32 10.68 -13 10 C-8.71 6.7 -4.42 3.4 0 0 Z " fill="#1A1A19" transform="translate(849,187)"/>
<path d="M0 0 C2.954889 3.5458668 5.45934985 7.63781033 7 12 C6.67 12.99 6.34 13.98 6 15 C3.045111 11.4541332 0.54065015 7.36218967 -1 3 C-0.67 2.01 -0.34 1.02 0 0 Z " fill="#D2D4D0" transform="translate(866,172)"/>
<path d="M0 0 C0.8125 1.625 0.8125 1.625 1 4 C-3 9.66666667 -3 9.66666667 -7 11 C-3.57894737 1.78947368 -3.57894737 1.78947368 0 0 Z " fill="#FFC117" transform="translate(797,300)"/>
<path d="M0 0 C0.66 1.32 1.32 2.64 2 4 C-0.25 6.5625 -0.25 6.5625 -3 9 C-5.3125 8.8125 -5.3125 8.8125 -7 8 C-7 7.34 -7 6.68 -7 6 C-6.21625 5.7525 -5.4325 5.505 -4.625 5.25 C-1.67682892 3.84610901 -1.0975223 2.99324263 0 0 Z " fill="#FFD971" transform="translate(819,255)"/>
<path d="M0 0 C0.33 0 0.66 0 1 0 C0.51470588 6.43014706 0.51470588 6.43014706 -1.75 8.9375 C-4.35402628 10.16717908 -6.15312226 10.23723981 -9 10 C-7 8 -7 8 -4.5 6.6875 C-1.5883109 4.72210986 -0.98374191 3.30895005 0 0 Z " fill="#FFF4D8" transform="translate(841,325)"/>
<path d="M0 0 C-3.63423209 2.32590854 -6.77088331 2.16265833 -11 2 C-10 0 -10 0 -8.3125 -0.6875 C-5.37519398 -1.08443325 -2.88840266 -0.59080963 0 0 Z " fill="#313131" transform="translate(848,211)"/>
</svg>
