<?xml version="1.0" encoding="UTF-8"?>
<svg version="1.1" xmlns="http://www.w3.org/2000/svg" width="1050" height="600">
<path d="M0 0 C346.5 0 693 0 1050 0 C1050 198 1050 396 1050 600 C703.5 600 357 600 0 600 C0 402 0 204 0 0 Z " fill="#FEFEFE" transform="translate(0,0)"/>
<path d="M0 0 C7.17557622 1.30465022 13.98258757 2.6620721 20.9375 4.6875 C22.28158936 5.07397705 22.28158936 5.07397705 23.65283203 5.46826172 C30.82317417 7.56876643 37.84883285 10.00277794 44.88037109 12.52294922 C60.59106103 18.10820744 76.40738638 21.0886605 93 22.625 C93.70277069 22.6907019 94.40554138 22.75640381 95.12960815 22.82409668 C106.61174371 23.86949162 118.03490555 24.27607058 129.5625 24.25 C130.6294812 24.24870087 130.6294812 24.24870087 131.71801758 24.24737549 C146.87745909 24.1994471 161.57544356 23.48229907 176.4375 20.1875 C177.69087158 19.91905273 178.94424316 19.65060547 180.2355957 19.37402344 C188.28872863 17.63679784 196.32226243 15.81903777 204.32421875 13.859375 C205.53722656 13.57578125 206.75023437 13.2921875 208 13 C208.63100616 12.83101196 209.26201233 12.66202393 209.91213989 12.48791504 C218.52441766 10.42314788 227.24792639 10.71046214 236.04296875 10.734375 C237.8152929 10.73302273 239.58761668 10.73107756 241.35993958 10.72857666 C245.07764207 10.72563568 248.79524822 10.72987913 252.51293945 10.73925781 C257.17865681 10.75047878 261.84414173 10.74400305 266.5098505 10.73238182 C293.62789546 10.6749951 320.79671642 10.95241433 347.6875 14.875 C348.83025391 15.02324219 349.97300781 15.17148437 351.15039062 15.32421875 C361.89130436 16.83150043 371.52473724 20.05781052 381.234375 24.8515625 C389.25330588 28.18145753 397.68129411 28.78004064 406.25 29.5625 C406.94959839 29.62692291 407.64919678 29.69134583 408.36999512 29.75772095 C435.30504454 32.19169743 462.3299389 32.09918488 489.3535614 32.18033218 C491.35506164 32.1874293 493.35654811 32.19811251 495.35803223 32.20883179 C499.16323305 32.22682462 502.96819885 32.23059493 506.7734375 32.23046875 C508.4623259 32.24116394 508.4623259 32.24116394 510.18533325 32.2520752 C521.45084604 32.22071445 532.49146633 30.79101704 543.3125 27.625 C544.46202148 27.29302612 544.46202148 27.29302612 545.63476562 26.9543457 C553.36229075 24.67083897 559.55224226 22.32052099 565.8125 17.125 C578.48807785 6.77327809 592.18121468 4.59754004 608 2 C608.79148437 1.86577637 609.58296875 1.73155273 610.3984375 1.59326172 C658.71124916 -6.27084293 711.38652246 3.97344645 755.46386719 23.86914062 C774.34098412 32.28643035 793.9651511 36.32772332 814.44921875 38.45849609 C817.26469439 38.75152939 820.07756647 39.06358247 822.890625 39.37890625 C860.77553799 43.551422 903.45957743 47.08300709 938.171875 28.953125 C947.81784032 23.95257979 958.03663001 21.04791504 968.4765625 18.25 C972.59878312 17.13447307 976.63207573 15.83787192 980.6875 14.5 C990.09770009 11.4496648 999.76851667 9.55671516 1009.44189453 7.54345703 C1012.68435171 6.85461282 1015.90265033 6.0897698 1019.125 5.3125 C1029.69739104 2.86737408 1039.02957752 2 1050 2 C1050 49.19 1050 96.38 1050 145 C703.5 145 357 145 0 145 C0 97.15 0 49.3 0 0 Z " fill="#FEB04B" transform="translate(0,455)"/>
<path d="M0 0 C0.83998535 0.11746582 1.6799707 0.23493164 2.54541016 0.35595703 C26.62023186 3.79378753 49.29307257 10.4924037 71.375 20.6875 C116.76441382 41.60825094 191.40162555 49.05260348 239.42578125 33.19921875 C243.24800489 31.74099225 246.93642387 30.04519363 250.59643555 28.22192383 C260.84283018 23.15642646 271.08017895 19.48710912 282.0625 16.375 C283.69280453 15.90287515 285.32292933 15.43012922 286.95288086 14.95678711 C319.21137692 5.64681174 347.97446698 0 382 0 C382 20.46 382 40.92 382 62 C35.5 62 -311 62 -668 62 C-668 41.87 -668 21.74 -668 1 C-662.61091444 2.19757457 -657.80421844 3.27493878 -652.671875 5.0234375 C-651.54136719 5.405 -650.41085937 5.7865625 -649.24609375 6.1796875 C-648.09238281 6.57414063 -646.93867187 6.96859375 -645.75 7.375 C-589.76117359 26.39725133 -531.704966 24.64705462 -474.88638306 10.4087677 C-468.67309573 8.86680758 -462.86421266 7.87779995 -456.45532227 7.83886719 C-454.51884323 7.82466736 -454.51884323 7.82466736 -452.54324341 7.81018066 C-451.13429897 7.80535557 -449.72535311 7.80093221 -448.31640625 7.796875 C-446.838287 7.78990935 -445.36016811 7.78286831 -443.88204956 7.77575684 C-439.10886346 7.75621023 -434.33572166 7.75157255 -429.5625 7.75 C-428.75252186 7.74941086 -427.94254372 7.74882172 -427.10802078 7.74821472 C-406.19093581 7.73744404 -385.3195729 7.90330278 -364.4375 9.25 C-363.53863068 9.30458374 -362.63976135 9.35916748 -361.71365356 9.41540527 C-340.31549194 10.76245336 -319.73099215 14.02499065 -300.08203125 22.8515625 C-271.28004235 33.58386255 -234.10471963 29.17319094 -203.72485352 29.13037109 C-199.58130904 29.12458388 -195.43782812 29.12803151 -191.29428577 29.13394356 C-188.04183987 29.13757195 -184.78940888 29.13640167 -181.53696251 29.13381577 C-180.00816528 29.13315747 -178.47936661 29.13393564 -176.95057106 29.13629532 C-165.41553925 29.1502511 -154.25339005 29.03300664 -143.125 25.75 C-141.96955688 25.41403809 -141.96955688 25.41403809 -140.79077148 25.07128906 C-138.52128153 24.3986729 -136.25992179 23.7040191 -134 23 C-132.79214844 22.62875 -131.58429687 22.2575 -130.33984375 21.875 C-123.17168872 19.41441758 -118.17162683 16.01605881 -112.45703125 11.078125 C-99.78842537 0.3631833 -79.42477558 0.03353981 -63.67211914 -1.70166016 C-62.01362138 -1.88683003 -60.35621159 -2.08244758 -58.70092773 -2.29443359 C-39.16675602 -4.73867343 -19.37981353 -2.77695556 0 0 Z " fill="#FD7ECB" transform="translate(668,538)"/>
<path d="M0 0 C8.34863292 3.66247739 16.73758869 6.3230509 25.54394531 8.62036133 C26.589375 8.95165039 27.63480469 9.28293945 28.71191406 9.62426758 C72.13029983 20.91039232 137.87516138 27.04105562 178.78271484 6.56420898 C218.02555336 -13.06992119 265.04242263 -22.19303279 308.54394531 -21.37963867 C308.54394531 -12.79963867 308.54394531 -4.21963867 308.54394531 4.62036133 C302.20175781 4.77504883 302.20175781 4.77504883 295.73144531 4.93286133 C275.22478019 5.60703362 256.39260272 9.60860633 236.54394531 14.62036133 C234.60125383 15.1008982 232.65854597 15.5813689 230.71582031 16.06176758 C211.4860058 20.87829654 192.38039815 26.06330892 174.70556641 35.20727539 C157.05670858 44.23692358 136.97201695 44.82165538 117.54394531 44.74536133 C116.81518188 44.74347809 116.08641846 44.74159485 115.33557129 44.73965454 C93.88868449 44.67485058 72.85327245 43.10542303 51.54394531 40.62036133 C50.58359375 40.50966309 49.62324219 40.39896484 48.63378906 40.28491211 C28.4921119 37.87844148 10.34957545 31.92763572 -8.11523438 23.66479492 C-30.56253924 13.64919519 -53.82995446 8.66073794 -78.01855469 4.93286133 C-78.79078369 4.81338135 -79.5630127 4.69390137 -80.35864258 4.57080078 C-110.96473906 0.06231873 -159.87638628 -2.29810854 -186.45605469 16.62036133 C-187.72064771 17.77119389 -188.97038474 18.93852763 -190.20605469 20.12036133 C-197.42852248 26.66306745 -207.41459476 28.7148377 -216.58105469 31.37036133 C-217.29632324 31.58128418 -218.0115918 31.79220703 -218.74853516 32.00952148 C-229.82417699 35.07171414 -241.26212597 34.77077107 -252.66308594 34.75317383 C-254.23459386 34.75385052 -255.80610168 34.75482355 -257.37760925 34.756073 C-260.66979978 34.75754106 -263.96196306 34.75542975 -267.25415039 34.75073242 C-271.37615572 34.74512412 -275.49809522 34.74835987 -279.62009811 34.75417137 C-359.17534906 34.8493339 -359.17534906 34.8493339 -379.36474609 26.11230469 C-400.12670076 17.15279875 -422.1403755 16.08615243 -444.45605469 14.62036133 C-445.16525055 14.57256531 -445.87444641 14.52476929 -446.60513306 14.4755249 C-461.93409511 13.47658657 -477.29608922 13.27328248 -492.65323734 13.17567921 C-496.58757298 13.15032025 -500.52060028 13.11151117 -504.4543457 13.03735352 C-525.35164225 12.6535018 -544.07000023 14.32427097 -564.30004883 19.78471375 C-568.78160958 20.9713419 -573.29869337 21.96246545 -577.83105469 22.93286133 C-579.11753906 23.21774414 -580.40402344 23.50262695 -581.72949219 23.79614258 C-595.505172 26.38334826 -609.16340752 26.95633079 -623.14355469 26.87036133 C-624.02947296 26.86759186 -624.91539124 26.86482239 -625.82815552 26.86196899 C-660.68296215 26.73505384 -691.24012373 22.43796186 -724.26855469 11.37036133 C-725.94363757 10.81032393 -727.61876749 10.25042718 -729.29394531 9.69067383 C-733.34861331 8.33577735 -737.40230505 6.97801524 -741.45605469 5.62036133 C-741.45605469 -2.95963867 -741.45605469 -11.53963867 -741.45605469 -20.37963867 C-729.73991096 -18.42694805 -718.70050876 -14.51919951 -707.48339844 -10.69604492 C-696.86288867 -7.10754503 -686.59811185 -4.12981543 -675.45605469 -2.75463867 C-674.56789063 -2.6334668 -673.67972656 -2.51229492 -672.76464844 -2.38745117 C-657.09140086 -0.38197304 -641.2547089 -0.19293926 -625.47509766 -0.19433594 C-622.69385909 -0.19212899 -619.9130061 -0.1738111 -617.13183594 -0.1550293 C-606.71471794 -0.12191072 -596.74588658 -0.60899606 -586.45605469 -2.37963867 C-585.58916016 -2.52570557 -584.72226562 -2.67177246 -583.82910156 -2.82226562 C-581.57171106 -3.22533734 -579.32690532 -3.66684983 -577.08105469 -4.12963867 C-576.26652832 -4.29375244 -575.45200195 -4.45786621 -574.61279297 -4.62695312 C-566.42572654 -6.31414745 -558.30913508 -8.30140627 -550.20849609 -10.36108398 C-548.71842041 -10.73185059 -548.71842041 -10.73185059 -547.19824219 -11.11010742 C-546.33054199 -11.33077881 -545.4628418 -11.5514502 -544.56884766 -11.77880859 C-537.15493739 -13.20983865 -529.7163206 -13.53120375 -522.18261719 -13.51245117 C-520.88491142 -13.51456604 -520.88491142 -13.51456604 -519.56098938 -13.51672363 C-516.73430289 -13.51885692 -513.90772992 -13.51254147 -511.08105469 -13.50463867 C-510.10218292 -13.50308777 -509.12331116 -13.50153687 -508.11477661 -13.49993896 C-401.23921048 -13.30336733 -401.23921048 -13.30336733 -375.55371094 0.04614258 C-354.38566084 10.80367623 -322.601202 7.76522313 -299.25683594 7.89379883 C-297.86835984 7.90178434 -297.86835984 7.90178434 -296.45183372 7.90993118 C-291.5558697 7.93638381 -286.65992876 7.95584801 -281.76391602 7.97045898 C-277.77572624 7.98378084 -273.78805008 8.0116438 -269.80004883 8.05249023 C-238.74366346 8.68720669 -238.74366346 8.68720669 -208.45605469 2.62036133 C-207.70581528 2.38078705 -206.95557587 2.14121277 -206.18260193 1.89437866 C-197.72825066 -0.86182895 -191.53073811 -4.50788903 -184.84277344 -10.33666992 C-142.02020863 -46.99166402 -44.72573373 -19.92858717 0 0 Z " fill="#83D890" transform="translate(741.4560546875,533.379638671875)"/>
<path d="M0 0 C7.17557622 1.30465022 13.98258757 2.6620721 20.9375 4.6875 C22.28158936 5.07397705 22.28158936 5.07397705 23.65283203 5.46826172 C30.82317417 7.56876643 37.84883285 10.00277794 44.88037109 12.52294922 C60.59106103 18.10820744 76.40738638 21.0886605 93 22.625 C93.70277069 22.6907019 94.40554138 22.75640381 95.12960815 22.82409668 C106.61174371 23.86949162 118.03490555 24.27607058 129.5625 24.25 C130.6294812 24.24870087 130.6294812 24.24870087 131.71801758 24.24737549 C146.87745909 24.1994471 161.57544356 23.48229907 176.4375 20.1875 C177.69087158 19.91905273 178.94424316 19.65060547 180.2355957 19.37402344 C188.28872863 17.63679784 196.32226243 15.81903777 204.32421875 13.859375 C205.53722656 13.57578125 206.75023437 13.2921875 208 13 C208.63100616 12.83101196 209.26201233 12.66202393 209.91213989 12.48791504 C218.52441766 10.42314788 227.24792639 10.71046214 236.04296875 10.734375 C237.8152929 10.73302273 239.58761668 10.73107756 241.35993958 10.72857666 C245.07764207 10.72563568 248.79524822 10.72987913 252.51293945 10.73925781 C257.17865681 10.75047878 261.84414173 10.74400305 266.5098505 10.73238182 C293.62789546 10.6749951 320.79671642 10.95241433 347.6875 14.875 C348.83025391 15.02324219 349.97300781 15.17148437 351.15039062 15.32421875 C361.89130436 16.83150043 371.52473724 20.05781052 381.234375 24.8515625 C389.25330588 28.18145753 397.68129411 28.78004064 406.25 29.5625 C406.94959839 29.62692291 407.64919678 29.69134583 408.36999512 29.75772095 C435.30504454 32.19169743 462.3299389 32.09918488 489.3535614 32.18033218 C491.35506164 32.1874293 493.35654811 32.19811251 495.35803223 32.20883179 C499.16323305 32.22682462 502.96819885 32.23059493 506.7734375 32.23046875 C508.4623259 32.24116394 508.4623259 32.24116394 510.18533325 32.2520752 C521.45084604 32.22071445 532.49146633 30.79101704 543.3125 27.625 C544.46202148 27.29302612 544.46202148 27.29302612 545.63476562 26.9543457 C553.36229075 24.67083897 559.55224226 22.32052099 565.8125 17.125 C578.48807785 6.77327809 592.18121468 4.59754004 608 2 C608.79148437 1.86577637 609.58296875 1.73155273 610.3984375 1.59326172 C658.71124916 -6.27084293 711.38652246 3.97344645 755.46386719 23.86914062 C774.34098412 32.28643035 793.9651511 36.32772332 814.44921875 38.45849609 C817.26469439 38.75152939 820.07756647 39.06358247 822.890625 39.37890625 C860.77553799 43.551422 903.45957743 47.08300709 938.171875 28.953125 C947.81784032 23.95257979 958.03663001 21.04791504 968.4765625 18.25 C972.59878312 17.13447307 976.63207573 15.83787192 980.6875 14.5 C990.09770009 11.4496648 999.76851667 9.55671516 1009.44189453 7.54345703 C1012.68435171 6.85461282 1015.90265033 6.0897698 1019.125 5.3125 C1029.69739104 2.86737408 1039.02957752 2 1050 2 C1050 10.91 1050 19.82 1050 29 C1046.205 28.9175 1042.41 28.835 1038.5 28.75 C1006.80535888 28.58510999 975.33887987 38.30435156 945.25 47.5625 C944.5428183 47.77584991 943.8356366 47.98919983 943.10702515 48.20901489 C933.7398634 51.05323704 925.14599131 54.66069995 916.47802734 59.21533203 C875.12306348 80.43565955 800.78885472 69.66718078 758.06689453 56.66650391 C751.35036723 54.50064996 744.88657422 51.71453445 738.43652344 48.86914062 C718.36121112 40.02334626 698.29556963 34.21897373 676.75 30.125 C675.68031982 29.92156982 674.61063965 29.71813965 673.50854492 29.50854492 C658.92265224 26.89984236 644.27154338 26.75967046 629.5 26.75 C628.10403595 26.74898788 628.10403595 26.74898788 626.67987061 26.74795532 C612.91577857 26.76378904 599.51212096 27.14049671 586 30 C585.1224707 30.17692383 584.24494141 30.35384766 583.34082031 30.53613281 C571.44875186 32.99085924 561.6535443 35.88452796 552.4375 44.125 C531.63231817 62.53878162 493.28398447 59.20626686 467.75 59.1875 C466.49109955 59.18756042 465.2321991 59.18762085 463.93515015 59.18768311 C444.43273501 59.17437647 425.03385122 58.74169311 405.58642578 57.26904297 C402.22412526 57.01681321 398.86153703 56.80280891 395.49609375 56.59765625 C383.66118898 55.80235221 372.35338708 54.14349112 361.60449219 48.81176758 C354.08640014 45.10854897 346.8831555 43.55764158 338.625 42.3125 C336.81708984 42.01375977 336.81708984 42.01375977 334.97265625 41.70898438 C316.95121885 38.84321878 298.91750661 37.660699 280.6875 37.375 C279.71454987 37.35930969 278.74159973 37.34361938 277.73916626 37.32745361 C273.62814051 37.26271436 269.51712679 37.20017838 265.40592957 37.14730835 C259.20696863 37.06461412 253.01397988 36.91767048 246.81771851 36.71852112 C219.61568259 35.88071733 195.29655883 38.47273144 169.003479 45.47174072 C166.00450831 46.26248227 162.99636918 47.0071627 159.98046875 47.73046875 C159.05516357 47.95500732 158.1298584 48.1795459 157.17651367 48.41088867 C149.31176752 49.86947237 141.45422226 50.15740035 133.47265625 50.16796875 C132.49386002 50.1721582 131.51506378 50.17634766 130.50660706 50.18066406 C127.35852978 50.19038261 124.21058971 50.1904634 121.0625 50.1875 C119.45154449 50.18709213 119.45154449 50.18709213 117.80804443 50.18667603 C90.63021882 50.15496594 63.54559166 49.62477976 37.57568359 40.85986328 C33.14323024 39.3801381 28.6910608 37.96160465 24.24169922 36.53369141 C21.74637055 35.7326624 19.2518727 34.92903965 16.75830078 34.12255859 C15.59927246 33.74824707 14.44024414 33.37393555 13.24609375 32.98828125 C12.21154053 32.65352783 11.1769873 32.31877441 10.11108398 31.97387695 C6.75839417 30.92436901 3.37794679 29.96512766 0 29 C0 19.43 0 9.86 0 0 Z " fill="#FFEE95" transform="translate(0,455)"/>
<path d="M0 0 C0.83998535 0.11746582 1.6799707 0.23493164 2.54541016 0.35595703 C26.62023186 3.79378753 49.29307257 10.4924037 71.375 20.6875 C116.76441382 41.60825094 191.40162555 49.05260348 239.42578125 33.19921875 C243.24800489 31.74099225 246.93642387 30.04519363 250.59643555 28.22192383 C260.84283018 23.15642646 271.08017895 19.48710912 282.0625 16.375 C283.69280453 15.90287515 285.32292933 15.43012922 286.95288086 14.95678711 C313.75818902 7.22063108 340.51267232 -0.24902059 368.5625 -0.0625 C370.50479492 -0.05573242 370.50479492 -0.05573242 372.48632812 -0.04882812 C375.657601 -0.03712601 378.82877546 -0.02073113 382 0 C382 2.31 382 4.62 382 7 C381.319375 7.12938965 380.63875 7.2587793 379.9375 7.39208984 C348.9729055 13.3883918 317.52325277 22.2167708 289.1875 36.25 C274.61992192 43.40040547 258.94981087 45.78438942 242.96679688 47.69042969 C240.79416988 47.97701178 240.79416988 47.97701178 238 49 C212.48606877 52.44379702 187.2833077 52.44291619 161.625 51.0625 C160.81816772 51.01920563 160.01133545 50.97591125 159.18005371 50.93130493 C156.88267847 50.80503326 154.585847 50.67171614 152.2890625 50.53515625 C151.5965036 50.4965448 150.9039447 50.45793335 150.19039917 50.41815186 C147.24612911 50.23464107 144.81602697 49.93867566 142 49 C140.07497781 48.81703965 138.14540519 48.68039164 136.21484375 48.5703125 C135.05452637 48.4990918 133.89420898 48.42787109 132.69873047 48.35449219 C130.83692139 48.24089355 130.83692139 48.24089355 128.9375 48.125 C118.74818984 47.4399828 108.84736214 46.43920231 98.82470703 44.52441406 C95.27300976 43.86503241 91.71307743 43.25658985 88.15234375 42.6484375 C35.28022978 33.58824882 35.28022978 33.58824882 18.76953125 22.69921875 C-0.82291743 10.67846392 -30.32582006 6.00983638 -53 9 C-58.0728565 10.64476226 -61.25838932 13.33123235 -65.0546875 16.96875 C-87.48471757 38.3306834 -135.86550138 42.12933142 -165.671875 42.16796875 C-167.19437614 42.17432091 -167.19437614 42.17432091 -168.74763489 42.18080139 C-172.08179818 42.19073673 -175.41582435 42.19070004 -178.75 42.1875 C-179.90748749 42.18689575 -181.06497498 42.1862915 -182.25753784 42.18566895 C-302.11769495 42.01783341 -302.11769495 42.01783341 -343.47412109 25.76660156 C-349.26088052 23.49985252 -354.86475216 21.9902084 -361 21 C-361.67587158 20.88857666 -362.35174316 20.77715332 -363.0480957 20.66235352 C-404.34336674 14.46729424 -447.18106528 20.45819571 -488 27 C-492.32981841 27.69354155 -496.66169529 28.36174951 -501 29 C-502.15966278 29.17109787 -503.31932556 29.34219574 -504.51412964 29.51847839 C-514.43171654 30.87562897 -524.13104059 31.31118363 -534.1328125 31.30078125 C-535.74201564 31.3046905 -537.35121778 31.30902951 -538.9604187 31.31376648 C-542.31690828 31.32116505 -545.67329263 31.32098797 -549.02978516 31.31567383 C-552.40166684 31.31107515 -555.77318504 31.31784662 -559.14501953 31.33618164 C-643.12001039 31.78882027 -643.12001039 31.78882027 -666.83203125 15.76171875 C-668.65605593 13.01043069 -668.28388847 10.55757849 -668.1875 7.3125 C-668.16042969 6.13300781 -668.13335938 4.95351563 -668.10546875 3.73828125 C-668.07066406 2.83464844 -668.03585937 1.93101562 -668 1 C-660.35114768 2.51349631 -653.12182614 4.85457676 -645.75 7.375 C-589.76117359 26.39725133 -531.704966 24.64705462 -474.88638306 10.4087677 C-468.67309573 8.86680758 -462.86421266 7.87779995 -456.45532227 7.83886719 C-454.51884323 7.82466736 -454.51884323 7.82466736 -452.54324341 7.81018066 C-451.13429897 7.80535557 -449.72535311 7.80093221 -448.31640625 7.796875 C-446.838287 7.78990935 -445.36016811 7.78286831 -443.88204956 7.77575684 C-439.10886346 7.75621023 -434.33572166 7.75157255 -429.5625 7.75 C-428.75252186 7.74941086 -427.94254372 7.74882172 -427.10802078 7.74821472 C-406.19093581 7.73744404 -385.3195729 7.90330278 -364.4375 9.25 C-363.53863068 9.30458374 -362.63976135 9.35916748 -361.71365356 9.41540527 C-340.31549194 10.76245336 -319.73099215 14.02499065 -300.08203125 22.8515625 C-271.28004235 33.58386255 -234.10471963 29.17319094 -203.72485352 29.13037109 C-199.58130904 29.12458388 -195.43782812 29.12803151 -191.29428577 29.13394356 C-188.04183987 29.13757195 -184.78940888 29.13640167 -181.53696251 29.13381577 C-180.00816528 29.13315747 -178.47936661 29.13393564 -176.95057106 29.13629532 C-165.41553925 29.1502511 -154.25339005 29.03300664 -143.125 25.75 C-141.96955688 25.41403809 -141.96955688 25.41403809 -140.79077148 25.07128906 C-138.52128153 24.3986729 -136.25992179 23.7040191 -134 23 C-132.79214844 22.62875 -131.58429687 22.2575 -130.33984375 21.875 C-123.17168872 19.41441758 -118.17162683 16.01605881 -112.45703125 11.078125 C-99.78842537 0.3631833 -79.42477558 0.03353981 -63.67211914 -1.70166016 C-62.01362138 -1.88683003 -60.35621159 -2.08244758 -58.70092773 -2.29443359 C-39.16675602 -4.73867343 -19.37981353 -2.77695556 0 0 Z " fill="#C06E95" transform="translate(668,538)"/>
<path d="M0 0 C1.71896484 0.30647461 1.71896484 0.30647461 3.47265625 0.61914062 C7.5477262 1.35362443 11.61858106 2.10731115 15.6875 2.875 C16.98324951 3.11943848 18.27899902 3.36387695 19.61401367 3.61572266 C40.18610202 7.64658954 59.33564084 14.6374737 78.47558594 23.04125977 C89.36065716 27.76254606 100.25885585 31.21176963 112 33 C112 33.33 112 33.66 112 34 C-144.08 34 -400.16 34 -664 34 C-664 23.44 -664 12.88 -664 2 C-658.31331499 3.26370778 -653.00834113 4.51417822 -647.5 6.25 C-646.8184082 6.46325928 -646.13681641 6.67651855 -645.43457031 6.89624023 C-641.88617542 8.0216277 -638.3761857 9.21202985 -634.890625 10.51953125 C-585.86362033 28.904658 -528.18975967 24.94696683 -478.37890625 12.73046875 C-477.67549606 12.55831345 -476.97208588 12.38615814 -476.24736023 12.20878601 C-474.33171882 11.73769424 -472.41739724 11.26124475 -470.50317383 10.78442383 C-464.40183003 9.41822287 -458.56789778 8.87437646 -452.31835938 8.87060547 C-451.58374985 8.86885315 -450.84914032 8.86710083 -450.0922699 8.86529541 C-447.67607211 8.8609157 -445.25994847 8.86380609 -442.84375 8.8671875 C-441.13765448 8.8665122 -439.43155906 8.8655403 -437.72546387 8.86428833 C-434.14460334 8.86281562 -430.56376777 8.86494796 -426.98291016 8.86962891 C-422.46356585 8.87525761 -417.94428128 8.87199393 -413.42493916 8.866189 C-330.6900404 8.77585752 -330.6900404 8.77585752 -302.12109375 21.2578125 C-287.50919221 27.36591652 -272.36031651 28.19333946 -256.71875 29.0625 C-255.94349913 29.10596746 -255.16824825 29.14943493 -254.36950493 29.19421959 C-237.37886159 30.12577501 -220.40748473 30.3423191 -203.39428711 30.31567383 C-200.14610161 30.31098349 -196.89828536 30.31821431 -193.65014648 30.33618164 C-148.29843419 31.1762683 -148.29843419 31.1762683 -109.1015625 11.21875 C-101.29583383 5.63480304 -92.30149291 3.98808633 -83 2.375 C-81.79867432 2.16335205 -80.59734863 1.9517041 -79.35961914 1.73364258 C-75.90914236 1.13767851 -72.45581511 0.56407446 -69 0 C-67.78546143 -0.20568604 -67.78546143 -0.20568604 -66.54638672 -0.41552734 C-45.45439354 -3.87155304 -20.99653659 -3.84557896 0 0 Z " fill="#8770CE" transform="translate(664,566)"/>
<path d="M0 0 C8.34863292 3.66247739 16.73758869 6.3230509 25.54394531 8.62036133 C26.589375 8.95165039 27.63480469 9.28293945 28.71191406 9.62426758 C72.13029983 20.91039232 137.87516138 27.04105562 178.78271484 6.56420898 C217.987306 -13.05078512 265.07254994 -22.26228362 308.54394531 -21.37963867 C308.54394531 -19.72963867 308.54394531 -18.07963867 308.54394531 -16.37963867 C308.00318359 -16.29512451 307.46242188 -16.21061035 306.90527344 -16.12353516 C283.82899407 -12.43142717 262.17510482 -5.54742921 240.31152344 2.59204102 C237.83584342 3.51190377 235.35557967 4.41722141 232.87207031 5.31567383 C226.73914311 7.55043908 220.75529952 9.93270908 214.85644531 12.74536133 C199.63946196 19.9140017 183.07407158 22.50731376 166.50952148 24.50073242 C164.47774254 24.74580796 162.44738636 25.00080963 160.41699219 25.25708008 C129.29562638 29.12683882 98.45781829 28.2325157 67.29394531 25.37036133 C66.16159454 25.26794128 65.02924377 25.16552124 63.86257935 25.05999756 C42.02134841 23.052806 20.24752686 20.33083296 -1.17480469 15.55395508 C-4.65205235 14.7811462 -8.1375796 14.10729824 -11.64355469 13.47900391 C-26.95958433 10.73251373 -39.68744885 7.6515271 -52.92089844 -0.98901367 C-68.75662931 -11.21241397 -90.89341352 -14.81564825 -109.45605469 -15.37963867 C-110.5040625 -15.41959961 -111.55207031 -15.45956055 -112.63183594 -15.50073242 C-125.42783212 -15.77163147 -131.85982491 -12.66906706 -141.14355469 -3.81713867 C-155.86289977 8.2330985 -180.58408563 11.0726405 -198.58105469 14.49536133 C-199.63317139 14.69846924 -200.68528809 14.90157715 -201.76928711 15.11083984 C-215.6736238 17.61554965 -229.7474045 17.77901922 -243.83496094 17.78833008 C-245.36549429 17.79237171 -246.89602713 17.79660849 -248.42655945 17.80102539 C-253.29056994 17.81239 -258.15453518 17.81095663 -263.01855469 17.80786133 C-263.84626877 17.80774174 -264.67398285 17.80762215 -265.52677917 17.80749893 C-299.68675789 17.80124131 -333.49815336 16.81756437 -367.46582031 12.95532227 C-370.03922475 12.6670539 -372.61273097 12.40540475 -375.19042969 12.15942383 C-388.98569882 10.71446481 -402.01421761 7.16347225 -414.83105469 1.93286133 C-422.02594528 -0.99543591 -428.69129133 -2.63953166 -436.45605469 -3.37963867 C-437.35122803 -3.46834229 -438.24640137 -3.5570459 -439.16870117 -3.6484375 C-471.85472777 -6.40696731 -506.03980357 -6.17519511 -538.41809082 -0.72192383 C-540.62070067 -0.35198564 -542.82477352 0.00810072 -545.02929688 0.36645508 C-550.68279741 1.28599644 -556.33572929 2.20904325 -561.98687744 3.14294434 C-585.83700966 7.08253254 -609.14734831 7.99645254 -633.28167725 7.65032959 C-635.3627294 7.62164758 -637.44376141 7.59898957 -639.52490234 7.57788086 C-655.71456513 7.38224148 -671.72618003 6.40403507 -687.83105469 4.80786133 C-688.63345581 4.73104126 -689.43585693 4.65422119 -690.26257324 4.57507324 C-730.28021057 0.67689039 -730.28021057 0.67689039 -741.45605469 -10.37963867 C-741.94433594 -12.95776367 -741.94433594 -12.95776367 -741.76855469 -15.62963867 C-741.7234375 -16.52166992 -741.67832031 -17.41370117 -741.63183594 -18.33276367 C-741.57382812 -19.00823242 -741.51582031 -19.68370117 -741.45605469 -20.37963867 C-729.77079474 -18.80054949 -718.58839126 -14.48098623 -707.48339844 -10.69604492 C-696.86288867 -7.10754503 -686.59811185 -4.12981543 -675.45605469 -2.75463867 C-674.56789063 -2.6334668 -673.67972656 -2.51229492 -672.76464844 -2.38745117 C-657.09140086 -0.38197304 -641.2547089 -0.19293926 -625.47509766 -0.19433594 C-622.69385909 -0.19212899 -619.9130061 -0.1738111 -617.13183594 -0.1550293 C-606.71471794 -0.12191072 -596.74588658 -0.60899606 -586.45605469 -2.37963867 C-585.58916016 -2.52570557 -584.72226562 -2.67177246 -583.82910156 -2.82226562 C-581.57171106 -3.22533734 -579.32690532 -3.66684983 -577.08105469 -4.12963867 C-576.26652832 -4.29375244 -575.45200195 -4.45786621 -574.61279297 -4.62695312 C-566.42572654 -6.31414745 -558.30913508 -8.30140627 -550.20849609 -10.36108398 C-548.71842041 -10.73185059 -548.71842041 -10.73185059 -547.19824219 -11.11010742 C-546.33054199 -11.33077881 -545.4628418 -11.5514502 -544.56884766 -11.77880859 C-537.15493739 -13.20983865 -529.7163206 -13.53120375 -522.18261719 -13.51245117 C-520.88491142 -13.51456604 -520.88491142 -13.51456604 -519.56098938 -13.51672363 C-516.73430289 -13.51885692 -513.90772992 -13.51254147 -511.08105469 -13.50463867 C-510.10218292 -13.50308777 -509.12331116 -13.50153687 -508.11477661 -13.49993896 C-401.23921048 -13.30336733 -401.23921048 -13.30336733 -375.55371094 0.04614258 C-354.38566084 10.80367623 -322.601202 7.76522313 -299.25683594 7.89379883 C-297.86835984 7.90178434 -297.86835984 7.90178434 -296.45183372 7.90993118 C-291.5558697 7.93638381 -286.65992876 7.95584801 -281.76391602 7.97045898 C-277.77572624 7.98378084 -273.78805008 8.0116438 -269.80004883 8.05249023 C-238.74366346 8.68720669 -238.74366346 8.68720669 -208.45605469 2.62036133 C-207.70581528 2.38078705 -206.95557587 2.14121277 -206.18260193 1.89437866 C-197.72825066 -0.86182895 -191.53073811 -4.50788903 -184.84277344 -10.33666992 C-142.02020863 -46.99166402 -44.72573373 -19.92858717 0 0 Z " fill="#84B652" transform="translate(741.4560546875,533.379638671875)"/>
<path d="M0 0 C5.55743243 1.11148649 5.55743243 1.11148649 8.625 4.125 C20.90175456 15.32121624 35.7750034 20.31638491 52.1171875 22.03515625 C52.87841415 22.11855759 53.63964081 22.20195892 54.42393494 22.28788757 C56.90677152 22.55513435 59.39055224 22.81068923 61.875 23.0625 C62.73757416 23.15059937 63.60014832 23.23869873 64.48886108 23.32946777 C81.21637129 25.01335367 97.85030383 25.8133746 114.65582275 25.97460938 C117.15139707 26.00163984 119.64667548 26.03909149 122.14208984 26.078125 C143.33638998 26.39681723 164.00526283 26.24874664 185 23 C186.50017722 22.77804807 188.00051669 22.5571912 189.50097656 22.3371582 C197.01652057 21.23043334 204.52262368 20.10074516 212.00645447 18.7948761 C241.07724934 13.74799267 269.54881194 13.12496976 299 14 C299.79823181 14.02147095 300.59646362 14.04294189 301.41888428 14.06506348 C317.69334412 14.51174841 331.65456101 16.68308527 346.6484375 23.140625 C360.58845009 29.13530618 376.26667438 30.69215467 391.25 32.125 C392.07471802 32.20682526 392.89943604 32.28865051 393.74914551 32.37295532 C412.79893865 34.25440238 431.8749826 35.27791626 451 36 C451.76246033 36.02922546 452.52492065 36.05845093 453.31048584 36.08856201 C463.51308666 36.47586455 473.71556664 36.76834875 483.92370605 36.96032715 C485.97557694 36.99953334 488.02732422 37.04311748 490.07910156 37.08691406 C513.16431699 37.551805 536.14255227 36.37987768 559 33 C551.39236985 41.08310703 543.60819338 45.66557599 533 49 C532.32069931 49.2171315 531.64139862 49.434263 530.94151306 49.65797424 C510.90858691 55.73091634 490.18784801 54.65157541 469.49249268 54.4598999 C465.61311891 54.43024195 461.73391239 54.42638227 457.85444069 54.42305565 C439.87288168 54.40351499 421.9159418 54.20924276 403.96484375 53.09765625 C402.71055069 53.02091171 401.45625763 52.94416718 400.16395569 52.86509705 C386.89145329 51.94141397 373.37784154 50.42752817 361.5 44.125 C325.27022801 26.92975993 272.82165284 32.97756592 233.56100464 32.82476807 C231.63172925 32.81670661 229.70246352 32.80568812 227.77322388 32.79144287 C211.45331526 32.68275468 196.40157202 34.71556172 180.5 38.4375 C179.18893105 38.74079243 177.87773312 39.0435278 176.56640625 39.34570312 C175.91978027 39.49472076 175.2731543 39.6437384 174.60693359 39.79727173 C171.40517761 40.53394609 168.20268084 41.2673579 165 42 C163.77925781 42.28246582 162.55851563 42.56493164 161.30078125 42.85595703 C148.06227603 45.82812417 135.3508425 46.16063324 121.84228516 46.13037109 C119.03412339 46.12506448 116.22612532 46.13031306 113.41796875 46.13671875 C79.78448727 46.1511346 49.58761067 42.00365942 17.85668945 30.39746094 C11.92649277 28.23915489 6.15715064 26.6792229 0 25 C0 16.75 0 8.5 0 0 Z " fill="#FDB77E" transform="translate(0,488)"/>
<path d="M0 0 C0 18.15 0 36.3 0 55 C-34.59959911 55.08832148 -69.19908807 55.16212418 -103.79876613 55.20426132 C-107.89139767 55.20926364 -111.98402897 55.21444098 -116.07666016 55.21972656 C-117.29872045 55.22130043 -117.29872045 55.22130043 -118.54546882 55.22290608 C-131.70566043 55.24027133 -144.86578155 55.27178742 -158.02593146 55.30861118 C-171.54774237 55.34612899 -185.06951657 55.36825866 -198.59137738 55.37635398 C-206.92288996 55.38181938 -215.25420322 55.39902776 -223.58565439 55.43166587 C-229.31295732 55.45294791 -235.04015848 55.45916941 -240.767498 55.45400551 C-244.06296548 55.45146476 -247.35801792 55.45737051 -250.65343857 55.4768219 C-274.65801663 55.61147087 -293.75852659 51.22005635 -315.6809082 41.671875 C-348.34226821 27.46484935 -383.46446515 19.78373797 -419.125 19.75 C-419.86922211 19.74899292 -420.61344421 19.74798584 -421.38021851 19.74694824 C-440.12120252 19.76397162 -458.31893352 21.87661349 -476.63208008 25.90527344 C-478.73912442 26.35150554 -480.86907719 26.68706728 -483 27 C-483.66 26.34 -484.32 25.68 -485 25 C-484.01902344 24.78085937 -483.03804687 24.56171875 -482.02734375 24.3359375 C-468.90420502 21.30184684 -456.11705291 18.30836457 -446.5390625 8.24609375 C-439.86367482 2.34094311 -433.84788646 0.16598272 -425 0.4375 C-424.05866211 0.45409668 -423.11732422 0.47069336 -422.14746094 0.48779297 C-399.88479196 1.19286273 -375.73301473 5.31124127 -357.12109375 18.3125 C-352.94741161 21.19711833 -348.6811853 22.92868063 -343.8515625 24.42578125 C-343.15264389 24.64273651 -342.45372528 24.85969177 -341.73362732 25.08322144 C-333.62533327 27.51943459 -325.37899209 29.08849852 -317.0625 30.625 C-315.54476265 30.91322533 -314.02718386 31.20228684 -312.50976562 31.4921875 C-291.53722301 35.47818265 -270.84034205 38.9544245 -249.50854492 40.30297852 C-248.32623291 40.37959717 -247.1439209 40.45621582 -245.92578125 40.53515625 C-244.85755127 40.600979 -243.78932129 40.66680176 -242.6887207 40.73461914 C-240 41 -240 41 -237 42 C-234.56598845 42.22262078 -232.14990721 42.39917914 -229.7109375 42.53515625 C-228.98429901 42.57835999 -228.25766052 42.62156372 -227.50900269 42.66607666 C-225.13130758 42.80451459 -222.75329952 42.93488118 -220.375 43.0625 C-219.55978882 43.10635834 -218.74457764 43.15021667 -217.90466309 43.19540405 C-187.71505969 44.79125028 -157.67144402 44.4063345 -128 38 C-126.01196075 37.65682656 -124.02389042 37.31378615 -122.03466797 36.97753906 C-110.61701713 34.99924679 -99.87413149 32.04858887 -89.546875 26.70703125 C-81.74108261 22.6961167 -73.66448366 19.77963187 -65.375 16.9375 C-63.85941474 16.41214811 -62.34387156 15.8866748 -60.82836914 15.36108398 C-56.55908338 13.88688429 -52.28176662 12.43750043 -48 11 C-46.97406738 10.65485352 -45.94813477 10.30970703 -44.89111328 9.95410156 C-30.91856301 5.32641337 -14.77640377 0 0 0 Z " fill="#FD7ECB" transform="translate(1050,545)"/>
<path d="M0 0 C9.57 0 19.14 0 29 0 C29.70125 3.465 30.4025 6.93 31.125 10.5 C31.48573608 12.27419312 31.48573608 12.27419312 31.85375977 14.08422852 C33.16741899 20.6150338 34.39091652 27.15129896 35.52734375 33.71484375 C35.91290378 35.90299098 36.29967273 38.09092161 36.68670654 40.27880859 C36.93707396 41.71700815 37.18110535 43.15632521 37.41876221 44.59667969 C37.75448002 46.62870221 38.11141911 48.65597635 38.47265625 50.68359375 C38.67125244 51.85462646 38.86984863 53.02565918 39.07446289 54.23217773 C39.72813296 57.12836084 39.72813296 57.12836084 42.09545898 58.39477539 C42.72395752 58.59449951 43.35245605 58.79422363 44 59 C43.01 59.495 43.01 59.495 42 60 C42.52044314 69.48574915 44.12731077 78.64532736 46 87.9375 C46.3061707 89.4837704 46.61173695 91.0301606 46.91674805 92.57666016 C48.51742939 100.67031301 50.15172179 108.75722376 51.78396606 116.84455872 C52.39396421 119.86828298 53.00272058 122.89225534 53.61132812 125.91625977 C54.39497123 129.8097983 55.18470841 133.70202807 55.97851562 137.59350586 C57.9615815 147.37528182 59.71287988 157.09802828 61 167 C70.24 167 79.48 167 89 167 C89.36351562 163.95265625 89.36351562 163.95265625 89.734375 160.84375 C91.04776014 150.63107793 93.18486117 140.58144636 95.25 130.5 C96.06062813 126.50561953 96.86800561 122.51058315 97.67578125 118.515625 C97.87522842 117.53180847 98.0746756 116.54799194 98.28016663 115.53436279 C100.30250341 105.5453598 102.23723353 95.54025483 104.14746094 85.52929688 C105.33549845 79.32763579 106.59206224 73.15563487 108 67 C107.34257813 67.20496094 106.68515625 67.40992188 106.0078125 67.62109375 C94.91356106 70.76296171 82.00753434 73.61098706 71.25 68.3125 C69.47239658 67.25334463 67.7178763 66.15350989 66 65 C65.319375 64.57332031 64.63875 64.14664063 63.9375 63.70703125 C62.5966981 62.84730411 61.29121645 61.93254521 60 61 C60.66 60.67 61.32 60.34 62 60 C63.89586986 60.76253441 65.76698708 61.58687126 67.625 62.4375 C75.48441529 65.62351157 82.6353693 65.48319433 91 65 C91 63.02 91 61.04 91 59 C91.99 59 92.98 59 94 59 C94 60.65 94 62.3 94 64 C98.95 62.35 103.9 60.7 109 59 C110.24766017 52.8115442 111.49267305 46.62256354 112.73535156 40.43310547 C113.15749516 38.33237714 113.58033224 36.23178803 114.00390625 34.13134766 C117.06642396 19.11259788 117.06642396 19.11259788 119.62744141 4.00292969 C120 2 120 2 121 0 C130.24 0 139.48 0 149 0 C147.74022364 5.66899363 146.53011263 10.78388838 144.71617126 16.21897888 C144.3838986 17.22070014 144.3838986 17.22070014 144.04491335 18.2426582 C143.31145431 20.45024079 142.57165121 22.6556406 141.83178711 24.86108398 C141.30071971 26.45507807 140.77004486 28.04920299 140.23973083 29.64344788 C138.80589448 33.95006734 137.36649369 38.25480789 135.9259727 42.55919528 C134.41793194 47.06823364 132.91478271 51.57890225 131.411026 56.08937073 C128.88795157 63.65490865 126.36150476 71.21931334 123.83276367 78.78295898 C120.5844221 88.49904059 117.34167932 98.21698115 114.10068417 107.9355154 C111.31424825 116.29084827 108.52525628 124.64532752 105.73585057 132.99966931 C104.83870934 135.68699181 103.94192118 138.37443194 103.04517937 141.06188774 C101.63899701 145.27555039 100.23122466 149.48867858 98.82219887 153.70139122 C98.30446807 155.25005318 97.78724633 156.79888543 97.27056122 158.34789658 C96.56737961 160.45570124 95.86236297 162.56288301 95.15684509 164.66990662 C94.76214995 165.85101737 94.36745481 167.03212812 93.96079922 168.24903011 C93 171 93 171 92 173 C80.78 173 69.56 173 58 173 C55.67410589 167.18526473 53.43746472 161.56235048 51.46893311 155.65403748 C51.24500358 154.98466331 51.02107405 154.31528915 50.79035878 153.62563092 C50.05369425 151.42119531 49.32126308 149.21537859 48.58886719 147.00952148 C48.05651705 145.41354582 47.52390688 143.81765687 46.99105835 142.22184753 C45.55471512 137.91763469 44.12209465 133.61219141 42.69025326 129.30647922 C41.18946641 124.79529804 39.68549398 120.28517902 38.1819458 115.7749176 C35.66156763 108.21284903 33.1435066 100.65001211 30.62695312 93.08666992 C27.71440853 84.33326048 24.79869871 75.58091051 21.88120151 66.82915062 C19.07336365 58.4062462 16.26723648 49.982773 13.46207428 41.55897713 C12.26796075 37.97309974 11.07333443 34.38739379 9.87831879 30.80181694 C8.47496376 26.59075118 7.07313183 22.37918145 5.67250443 18.16720772 C5.15700519 16.61777778 4.64099116 15.06851901 4.12443924 13.5194397 C3.42261534 11.41445511 2.7226257 9.3088697 2.02313232 7.20310974 C1.63011303 6.02237601 1.23709373 4.84164228 0.83216476 3.62512875 C0 1 0 1 0 0 Z " fill="#030303" transform="translate(525,125)"/>
<path d="M0 0 C4.38502085 2.38823498 8.5360133 5.08902264 12.68164062 7.8671875 C20.25904184 12.65440546 29.02755017 14.0461865 37.68164062 15.8671875 C38.35243652 16.01043457 39.02323242 16.15368164 39.71435547 16.30126953 C47.13832805 17.87763072 54.56629286 19.19168621 62.07617188 20.27734375 C64.6689059 20.70150717 67.19393255 21.17747031 69.75585938 21.73828125 C86.24419225 25.27929336 102.9474348 26.68978088 119.71669006 28.21829224 C124.11752044 28.62058714 128.51002775 29.05603596 132.90039062 29.5625 C159.65934943 32.53571765 187.99008795 32.31708458 214.68164062 28.8671875 C215.77541016 28.73296387 216.86917969 28.59874023 217.99609375 28.46044922 C238.38806253 25.92409277 257.65310343 23.09522389 276.24853516 14.09448242 C285.56265869 9.69224863 295.19046437 6.36573999 304.93164062 3.0546875 C305.72657928 2.78237305 306.52151794 2.51005859 307.34054565 2.22949219 C321.86039275 -2.73034199 336.54970019 -7.44811339 351.68164062 -10.1328125 C351.68164062 -3.8628125 351.68164062 2.4071875 351.68164062 8.8671875 C349.86664062 8.89296875 348.05164062 8.91875 346.18164062 8.9453125 C303.84550521 9.80061705 255.17823217 19.62805746 217.33325195 39.60693359 C185.39518205 56.43349639 139.29339317 49.80530424 104.68164062 45.8671875 C103.37630371 45.72265137 102.0709668 45.57811523 100.72607422 45.42919922 C80.42970192 43.12064346 61.36310123 39.31608928 42.68164062 30.8671875 C21.21229133 21.32525448 -0.16589556 14.91906052 -23.31835938 10.8671875 C-24.68395996 10.62742187 -24.68395996 10.62742187 -26.07714844 10.3828125 C-28.59316735 9.94833808 -31.11079015 9.52747318 -33.63085938 9.1171875 C-34.34008545 9.00149414 -35.04931152 8.88580078 -35.7800293 8.76660156 C-46.30633023 7.14773841 -56.80465648 6.69915627 -67.44335938 6.7421875 C-68.6110083 6.74412109 -69.77865723 6.74605469 -70.98168945 6.74804688 C-80.45283749 6.79492408 -89.87376056 7.17581817 -99.31835938 7.8671875 C-96.45803584 5.96030514 -93.6816556 4.62175999 -90.56835938 3.1796875 C-86.66141108 1.25900549 -83.63064929 -0.47694221 -80.69335938 -3.6953125 C-63.3083604 -22.36655245 -19.85390539 -9.70115007 0 0 Z " fill="#FDB77D" transform="translate(698.318359375,503.1328125)"/>
<path d="M0 0 C1.46705974 2.81829898 2.64461542 5.64821872 3.75 8.625 C5.62410598 13.39159407 8.01991216 17.63185945 10.73046875 21.96875 C13.5504574 26.48073184 13.13523925 29.87368528 12 35 C9.37006944 39.57802728 6.91424757 40.50085197 2 42 C2.08691739 44.77236494 2.19377361 47.54147078 2.3125 50.3125 C2.33505859 51.09818359 2.35761719 51.88386719 2.38085938 52.69335938 C2.4340332 53.8293457 2.4340332 53.8293457 2.48828125 54.98828125 C2.51446533 55.68477783 2.54064941 56.38127441 2.56762695 57.09887695 C3.36884751 60.62180438 5.87990844 61.92360842 8.8125 63.7890625 C9.864375 64.39492187 10.91625 65.00078125 12 65.625 C13.051875 66.23601562 14.10375 66.84703125 15.1875 67.4765625 C20.10700834 70.14129618 24.00188163 70.02144209 29.4375 69.6875 C30.23849121 69.64117432 31.03948242 69.59484863 31.86474609 69.54711914 C38.32721287 69.13196167 44.64920693 68.28261115 51 67 C50.34052177 74.54643438 48.91096821 81.88421712 47.38977051 89.29577637 C46.59922803 93.14863074 45.82199334 97.00417835 45.04296875 100.859375 C44.79602768 102.07889862 44.79602768 102.07889862 44.5440979 103.32305908 C42.56357637 113.12240661 40.6569923 122.9361281 38.75 132.75 C38.09921151 136.09900762 37.44827876 139.44798699 36.796875 142.796875 C36.56889977 143.96899536 36.56889977 143.96899536 36.33631897 145.16479492 C34.91719367 152.44854793 33.46226352 159.72478765 32 167 C22.76 167 13.52 167 4 167 C1.75067751 159.12737127 1.75067751 159.12737127 1.18139648 155.97216797 C0.98445694 154.89700676 0.98445694 154.89700676 0.78353882 153.80012512 C0.64743195 153.03850571 0.51132507 152.27688629 0.37109375 151.4921875 C0.05937044 149.78718266 -0.25239929 148.08218631 -0.56420898 146.37719727 C-0.72670135 145.48138947 -0.88919373 144.58558167 -1.05661011 143.66262817 C-3.42519337 130.61091565 -5.85262389 117.57410966 -8.4921875 104.57421875 C-8.69708298 103.56345276 -8.90197845 102.55268677 -9.11308289 101.5112915 C-10.10449327 96.63088782 -11.10535777 91.7526233 -12.11743164 86.87646484 C-16.0823897 67.58262929 -16.0823897 67.58262929 -16 60 C-15.505 59.505 -15.505 59.505 -15 59 C-15.66 58.34 -16.32 57.68 -17 57 C-14.87506859 56.97306425 -12.75004088 56.95363372 -10.625 56.9375 C-9.44164062 56.92589844 -8.25828125 56.91429687 -7.0390625 56.90234375 C-4 57 -4 57 -2 58 C-1.67 52.72 -1.34 47.44 -1 42 C-2.98 41.34 -4.96 40.68 -7 40 C-10.69952257 36.70042582 -11.94425431 33.35203747 -12.296875 28.51953125 C-11.69471629 23.40910539 -8.63666122 19.3095773 -6 15 C-5.04040673 13.22006842 -4.1014562 11.42879039 -3.1875 9.625 C-2.78917969 8.85414063 -2.39085937 8.08328125 -1.98046875 7.2890625 C-0.94355465 4.86821922 -0.42601855 2.59275807 0 0 Z " fill="#FDFDFD" transform="translate(582,125)"/>
<path d="M0 0 C1.29357422 0.02320313 1.29357422 0.02320313 2.61328125 0.046875 C4.6875 0.25 4.6875 0.25 5.6875 1.25 C6.24536309 7.60963919 4.51683025 12.90912642 2.625 18.9375 C-1.5204057 32.59143674 -4.94716154 46.38672243 -8.3125 60.25 C-6.6625 60.25 -5.0125 60.25 -3.3125 60.25 C-4 62.1875 -4 62.1875 -5.3125 64.25 C-7.89453125 64.87890625 -7.89453125 64.87890625 -10.3125 65.25 C-10.41046875 65.88421875 -10.5084375 66.5184375 -10.609375 67.171875 C-11.39948335 72.1032409 -12.24877893 77.01251046 -13.265625 81.90234375 C-13.52110107 83.13223022 -13.52110107 83.13223022 -13.78173828 84.38696289 C-14.13794928 86.09870911 -14.49571727 87.81013201 -14.85498047 89.52124023 C-16.00964408 95.20002753 -16.69611454 100.79367304 -17.1875 106.5625 C-17.8055941 113.24005556 -19.08710011 116.87772662 -24.3125 121.25 C-27.75357266 123.54404844 -29.28089809 123.51293056 -33.3125 123.25 C-34.3125 122.25 -34.3125 122.25 -34.4777832 119.19384766 C-34.30353308 115.03603906 -33.60813898 111.18296662 -32.66796875 107.1484375 C-32.41228874 106.01095566 -32.41228874 106.01095566 -32.15144348 104.85049438 C-31.60794933 102.44035048 -31.05415598 100.0327122 -30.5 97.625 C-30.13929401 96.03270596 -29.77926247 94.44025898 -29.41992188 92.84765625 C-28.39433795 88.31273744 -27.35578519 83.78087556 -26.3125 79.25 C-26.15541565 78.56732056 -25.9983313 77.88464111 -25.83648682 77.18127441 C-24.99757572 73.53695552 -24.15631722 69.89318591 -23.3125 66.25 C-33.75529932 66.79594748 -43.87618774 68.17570897 -54.17919922 69.90234375 C-57.21773958 70.39752359 -60.26304031 70.82770465 -63.3125 71.25 C-63.56128906 72.04277344 -63.81007812 72.83554688 -64.06640625 73.65234375 C-65.31043935 77.2440506 -66.72313557 80.72136272 -68.18139648 84.22949219 C-72.32351252 94.2417352 -75.86004995 103.85187739 -76.6875 114.75 C-77.46327436 119.09433642 -78.93028665 120.51201776 -82.3125 123.25 C-85.3125 125.25 -85.3125 125.25 -87.9375 124.9375 C-90.3125 124.25 -90.3125 124.25 -91.3125 123.25 C-94.07227476 107.84416874 -81.558748 85.619372 -73.3125 73.25 C-74.17875 73.745 -74.17875 73.745 -75.0625 74.25 C-77.3125 75.25 -77.3125 75.25 -81.3125 75.25 C-81.625 72.9375 -81.625 72.9375 -81.3125 70.25 C-77.75785854 67.15402195 -73.82987857 66.66404291 -69.30078125 66.0703125 C-67.11551872 65.43744742 -67.11551872 65.43744742 -66.421875 63.22265625 C-66.05578125 62.24167969 -65.6896875 61.26070312 -65.3125 60.25 C-63.42375397 57.25970559 -61.33643717 54.41721956 -59.25 51.5625 C-58.66653809 50.7595752 -58.08307617 49.95665039 -57.48193359 49.12939453 C-53.08126945 43.1427964 -48.41792756 37.64919224 -43.3125 32.25 C-42.18200856 30.94222695 -41.05683698 29.6298329 -39.9375 28.3125 C-14.6520168 -0.44467426 -14.6520168 -0.44467426 0 0 Z " fill="#070707" transform="translate(279.3125,162.75)"/>
<path d="M0 0 C2.248125 1.0725 4.49625 2.145 6.8125 3.25 C32.12245815 14.60948438 63.08127197 15.15413685 90.40625 15.16796875 C91.94397001 15.17119853 93.48168974 15.17456374 95.01940918 15.17805481 C98.2229076 15.18398948 101.42637929 15.18590074 104.62988281 15.18530273 C107.86236193 15.18522174 111.09469853 15.19213108 114.32714844 15.20581055 C140.28257042 15.31359941 165.25204541 13.94026264 190.875 9.5 C197.1191598 8.43068763 203.36546955 7.37859077 209.62149048 6.3807373 C211.72330534 6.04429159 213.82312713 5.69544574 215.92260742 5.34472656 C229.85872564 3.33556182 243.98014857 3.69660348 258.02905273 3.73925781 C261.80598635 3.75066049 265.58263575 3.74406283 269.35955906 3.73211288 C272.32230167 3.72479733 275.28497971 3.72722582 278.24772453 3.73236847 C279.63841729 3.73367782 281.02911644 3.73215581 282.41980171 3.72740936 C295.53029588 3.692446 308.91226676 4.26170902 321.3125 8.875 C322.07264404 9.14038574 322.83278809 9.40577148 323.6159668 9.67919922 C326.71998473 10.77045294 329.78985268 11.91571014 332.84375 13.140625 C342.19216906 16.86815918 352.12393955 18.2891214 362 20 C362 20.33 362 20.66 362 21 C242.54 21 123.08 21 0 21 C0 14.07 0 7.14 0 0 Z " fill="#86AFE6" transform="translate(0,579)"/>
<path d="M0 0 C0.89203125 0.00902344 1.7840625 0.01804688 2.703125 0.02734375 C3.37859375 0.03894531 4.0540625 0.05054688 4.75 0.0625 C3.38926897 6.93629595 1.35096471 13.26573616 -1.125 19.8125 C-3.72625752 26.82116902 -6.2060712 33.81314209 -8.31640625 40.98828125 C-9.21004 43.93091624 -10.19453163 46.83285035 -11.20166016 49.73828125 C-13.52405443 56.46126744 -15.26853254 63.01644259 -16.25 70.0625 C-4.56605523 66.42749496 3.61815537 55.46125239 10.75 46.0625 C11.513125 45.11117187 12.27625 44.15984375 13.0625 43.1796875 C18.59495445 35.87161422 21.65323758 28.75165985 24.36767578 20.04125977 C26.31586264 13.83485807 28.46799799 8.98952392 33.5625 4.6875 C37.24133106 2.8120175 39.6754122 2.73653298 43.75 3.0625 C44.51802358 11.70276522 40.91881432 18.97772674 36.875 26.4375 C32.77576973 34.38814813 30.76681878 42.96018712 28.43945312 51.55126953 C6.52869887 131.35793321 6.52869887 131.35793321 -21.93017578 148.04785156 C-25.95304218 150.23430907 -30.06950122 152.19440272 -34.25 154.0625 C-35.06984375 154.43632812 -35.8896875 154.81015625 -36.734375 155.1953125 C-42.60017884 157.21737531 -48.73384225 157.26909959 -54.875 157.3125 C-55.61234375 157.333125 -56.3496875 157.35375 -57.109375 157.375 C-61.64077614 157.40748316 -64.73511325 157.03556626 -68.25 154.0625 C-68.25 153.0725 -68.25 152.0825 -68.25 151.0625 C-67.12722656 151.08570313 -66.00445312 151.10890625 -64.84765625 151.1328125 C-53.39223722 151.39378767 -53.39223722 151.39378767 -42.25 149.0625 C-41.4559375 148.81757813 -40.661875 148.57265625 -39.84375 148.3203125 C-22.75839183 142.36153017 -14.80399287 127.78117845 -7.3125 112.4375 C-1.56361331 100.35700766 3.12469696 87.95550898 7.58300781 75.3515625 C9.12421247 71.0078158 10.70601839 66.67933683 12.28808594 62.3503418 C13.78331789 58.25726189 15.26737292 54.16015933 16.75 50.0625 C16.42 49.7325 16.09 49.4025 15.75 49.0625 C15.09257812 49.86429688 14.43515625 50.66609375 13.7578125 51.4921875 C7.68739031 58.79108263 1.32441806 65.77458402 -5.3125 72.5625 C-6.39023682 73.69147705 -6.39023682 73.69147705 -7.48974609 74.84326172 C-13.2164738 80.61637012 -20.7816656 87.22060627 -29.3125 87.625 C-30.7665625 87.3465625 -30.7665625 87.3465625 -32.25 87.0625 C-34.75063354 83.31154969 -34.68554818 80.40055017 -34.25 76.0625 C-33.64786573 73.30933985 -32.77401376 70.69432817 -31.8359375 68.0390625 C-31.45775375 66.92149063 -31.45775375 66.92149063 -31.07192993 65.78134155 C-30.26759144 63.41268717 -29.44680963 61.05014209 -28.625 58.6875 C-28.09652832 57.14231239 -27.56917657 55.59674128 -27.04296875 54.05078125 C-25.98716331 50.95399392 -24.92780634 47.85846463 -23.86474609 44.76416016 C-23.60022644 43.99372375 -23.33570679 43.22328735 -23.06317139 42.42950439 C-22.51152247 40.82374768 -21.95912976 39.21824634 -21.40606689 37.61297607 C-20.57765471 35.20217396 -19.7568047 32.78891028 -18.9375 30.375 C-18.68753265 29.65245026 -18.43756531 28.92990051 -18.18002319 28.18545532 C-16.05776944 21.89816756 -14.92734732 15.67247556 -14.25 9.0625 C-16.89 9.7225 -19.53 10.3825 -22.25 11.0625 C-21.25 7.0625 -21.25 7.0625 -18.66796875 5.39453125 C-17.60191406 4.89308594 -16.53585937 4.39164063 -15.4375 3.875 C-14.37917969 3.36582031 -13.32085937 2.85664063 -12.23046875 2.33203125 C-7.92866267 0.4996761 -4.67200557 -0.06147376 0 0 Z " fill="#060606" transform="translate(483.25,201.9375)"/>
<path d="M0 0 C5.094375 0.020625 10.18875 0.04125 15.4375 0.0625 C15.4375 10.9525 15.4375 21.8425 15.4375 33.0625 C-30.7625 33.0625 -76.9625 33.0625 -124.5625 33.0625 C-101.82286582 16.00777437 -69.33355351 11.1010572 -42.2265625 4.90234375 C-39.80133621 4.34645499 -37.37932501 3.77633078 -34.9609375 3.19140625 C-33.83945312 2.92199219 -32.71796875 2.65257812 -31.5625 2.375 C-30.61375 2.14425781 -29.665 1.91351562 -28.6875 1.67578125 C-19.13557527 -0.19878398 -9.69199641 -0.05554012 0 0 Z " fill="#86AFE6" transform="translate(1034.5625,566.9375)"/>
<path d="M0 0 C5.08222462 2.15925536 9.69647767 5.02104604 14.31787109 8.01953125 C22.54928529 13.34513214 30.83943805 15.23097879 40.42724609 17.03125 C40.42724609 17.36125 40.42724609 17.69125 40.42724609 18.03125 C-14.68275391 18.03125 -69.79275391 18.03125 -126.57275391 18.03125 C-123.43631504 16.46303057 -121.41938879 15.64907409 -118.11572266 14.953125 C-117.2572876 14.76484131 -116.39885254 14.57655762 -115.5144043 14.38256836 C-114.60553467 14.1841333 -113.69666504 13.98569824 -112.76025391 13.78125 C-96.84721439 10.14786644 -84.7429602 4.66495334 -72.15869141 -5.9453125 C-55.41451511 -19.04725105 -17.75307022 -6.73591343 0 0 Z " fill="#86AFE6" transform="translate(679.57275390625,581.96875)"/>
<path d="M0 0 C1.5625 1.9375 1.5625 1.9375 2.125 5 C0.27596084 17.94327411 -9.641909 26.48830711 -19.60083008 33.96337891 C-36.11239326 45.9375 -36.11239326 45.9375 -42.4375 45.9375 C-43.2953587 59.53495452 -43.2953587 59.53495452 -38.4375 71.9375 C-35.16539307 75.17569909 -31.6519797 76.16556129 -27.125 76.4375 C-22.53051796 76.2483618 -18.74985031 74.70886014 -14.6015625 72.8125 C-12.4375 71.9375 -12.4375 71.9375 -9.4375 71.9375 C-9.5 74.1875 -9.5 74.1875 -10.4375 76.9375 C-18.07334536 82.23584168 -25.73266567 84.46705003 -34.9375 84.4375 C-35.74058594 84.46585937 -36.54367187 84.49421875 -37.37109375 84.5234375 C-44.74849678 84.54735129 -49.53084805 81.76559379 -54.75 76.6875 C-60.35957727 67.54596667 -61.02061458 57.23281272 -58.55859375 46.8671875 C-56.23963405 38.3336585 -52.82068468 31.01351005 -47.4375 23.9375 C-46.85355469 23.16019531 -46.26960937 22.38289063 -45.66796875 21.58203125 C-36.7159993 10.63235915 -14.93957506 -6.51212246 0 0 Z " fill="#070707" transform="translate(730.4375,203.0625)"/>
<path d="M0 0 C2.02431811 1.86237266 2.55571423 3.60260648 2.78125 6.3203125 C1.72228639 16.56956744 -7.31680106 25.0362558 -14.82861328 31.16967773 C-20.89998945 35.95399586 -27.32452193 39.85489347 -34.14453125 43.48242188 C-38.84620032 45.80163882 -38.84620032 45.80163882 -42.4375 49.4375 C-43.74590706 57.18185531 -42.39823018 64.6787056 -38.4375 71.4375 C-34.81037833 75.06462167 -32.05738724 76.29286721 -26.9375 76.75 C-22.1866198 76.72355725 -18.21256563 75.08237856 -13.85546875 73.3125 C-11.4375 72.4375 -11.4375 72.4375 -8.4375 72.4375 C-8.6640625 74.7734375 -8.6640625 74.7734375 -9.4375 77.4375 C-16.98830023 83.31034462 -28.57214711 86.11949565 -38.01953125 85.7890625 C-44.68337751 84.82016724 -50.29681603 81.76123653 -54.4375 76.4375 C-60.62811309 67.09048879 -59.24669735 55.73872029 -57.3125 45.1875 C-53.53612299 29.77018103 -42.65127748 17.00859891 -29.4375 8.4375 C-10.85047701 -2.50395623 -10.85047701 -2.50395623 0 0 Z " fill="#070707" transform="translate(395.4375,202.5625)"/>
<path d="M0 0 C-1.48277345 13.24320209 -5.50035978 25.80958333 -9.42773438 38.49707031 C-11.53126604 45.33467916 -13.37361724 52.1822714 -15.04296875 59.13671875 C-15.89616205 62.58083375 -16.82677551 65.98551118 -17.80126953 69.39624023 C-23.87351243 89.8608614 -23.87351243 89.8608614 -26.3125 110.9375 C-26.45738697 114.50001496 -26.55722811 116.37113558 -28.6171875 119.296875 C-30.65020254 121.15343968 -32.63855683 122.59179994 -35 124 C-36.60875 124.99 -36.60875 124.99 -38.25 126 C-41.23206618 127.0843877 -42.08722991 126.89623695 -45 126 C-45.5967005 117.49701787 -43.38136117 110.06396548 -41 102 C-40.17288717 99.18305154 -39.34625004 96.36596389 -38.51977539 93.54882812 C-37.91741292 91.49635814 -37.313709 89.44428142 -36.70874023 87.39257812 C-34.67120783 80.43889707 -32.78891198 73.45887416 -31 66.4375 C-28.97459746 58.49379329 -26.73347696 50.64469796 -24.3125 42.8125 C-20.94394932 31.89425102 -17.84146523 21.44392713 -17 10 C-21.455 10.495 -21.455 10.495 -26 11 C-23.59372821 6.18745642 -21.07403016 5.2370672 -16.375 3.25 C-15.34439453 2.77626953 -15.34439453 2.77626953 -14.29296875 2.29296875 C-9.3068966 0.13202566 -5.4219668 -0.31678907 0 0 Z " fill="#060606" transform="translate(450,162)"/>
<path d="M0 0 C0.53642479 5.76656647 -0.89266679 10.25582902 -2.671875 15.71875 C-4.41666773 21.19471486 -5.8414826 26.75816923 -7.3125 32.3125 C-9.29872452 39.79572069 -11.34514204 47.24720426 -13.58227539 54.65942383 C-16.64358957 64.82739141 -19.35636325 75.05912275 -21.83572388 85.38256836 C-22.18895323 86.85137559 -22.5456568 88.31935268 -22.90621948 89.78637695 C-24.99828562 98.33481117 -26.41021362 106.31623795 -26.54248047 115.15307617 C-27.09366285 118.58281881 -28.04517978 119.59093919 -30.75 121.6875 C-32.1466122 122.49409956 -33.56241014 123.26892964 -35 124 C-35.886875 124.639375 -36.77375 125.27875 -37.6875 125.9375 C-40.55180673 127.25353282 -42.0412917 126.92987975 -45 126 C-44.47836168 119.06582388 -43.36386826 112.49385835 -41.6875 105.75 C-41.46384766 104.83178467 -41.24019531 103.91356934 -41.00976562 102.9675293 C-39.48251998 96.76554139 -37.82465439 90.61172525 -36.01953125 84.484375 C-35.07676108 81.26234055 -34.18112112 78.0316251 -33.29711914 74.79321289 C-31.46139656 68.0759533 -29.52365382 61.40343676 -27.45678711 54.75341797 C-20.55940318 32.65945729 -20.55940318 32.65945729 -16 10 C-20.455 10.495 -20.455 10.495 -25 11 C-25 10.01 -25 9.02 -25 8 C-22.56343315 6.85214624 -20.12580719 5.70664598 -17.6875 4.5625 C-16.99720703 4.23701172 -16.30691406 3.91152344 -15.59570312 3.57617188 C-9.99940265 0.95375088 -6.19282004 -0.11684566 0 0 Z " fill="#050505" transform="translate(340,162)"/>
<path d="M0 0 C1.00869141 0.00902344 2.01738281 0.01804688 3.05664062 0.02734375 C5.51718457 0.05066644 7.97720896 0.08339237 10.4375 0.125 C9.9082717 3.63705221 9.71563046 4.84827424 7.1171875 7.43359375 C2.37093753 10.25106056 -3.12051006 9.42388262 -8.4375 9.1875 C-15.92965528 8.87954024 -21.7310477 8.81135302 -28.5625 12.125 C-31.44647796 14.79267961 -32.41742811 16.25456864 -33.0625 20.125 C-32.41639274 24.00164356 -31.28307954 25.26565828 -28.5625 28.125 C-25.68435809 30.13526919 -22.66903078 31.87926668 -19.625 33.625 C-14.28739077 36.7009104 -9.70489587 39.532 -5.5625 44.125 C-4.964375 44.723125 -4.36625 45.32125 -3.75 45.9375 C-1.86678688 49.4065768 -1.83240513 52.35182064 -2.5625 56.125 C-6.10827873 66.34518575 -12.11373251 73.33579317 -21.39453125 78.7890625 C-28.12015707 81.87991493 -34.57081922 82.615135 -41.875 82.75 C-43.12869385 82.78492554 -43.12869385 82.78492554 -44.40771484 82.82055664 C-51.45065257 82.73022666 -56.07075412 80.27723545 -61.24731445 75.60400391 C-62.5625 74.125 -62.5625 74.125 -63.1875 71.8125 C-62.19311801 67.53665745 -59.15217443 65.45383837 -55.5625 63.125 C-52.625 62.25 -52.625 62.25 -50.5625 62.125 C-50.27117188 62.65609375 -49.97984375 63.1871875 -49.6796875 63.734375 C-46.94704966 68.44344902 -44.67681264 71.80908484 -39.5625 74.125 C-32.77622598 75.35993721 -27.70437729 73.73650601 -21.69140625 70.609375 C-18.66879191 68.50186408 -16.95441875 66.51159862 -15.9453125 62.94140625 C-15.86023438 62.19761719 -15.77515625 61.45382812 -15.6875 60.6875 C-15.58695313 59.94628906 -15.48640625 59.20507812 -15.3828125 58.44140625 C-15.64180629 55.10263842 -16.42144175 53.74719493 -18.5625 51.125 C-21.51812205 49.07489018 -24.64519527 47.38650186 -27.8125 45.6875 C-42.85602146 37.53795707 -42.85602146 37.53795707 -45.5625 32.125 C-46.37410395 25.88724395 -45.88415903 21.14514033 -42.16015625 16 C-31.2313754 3.17404693 -16.22512749 -0.27918816 0 0 Z " fill="#080808" transform="translate(851.5625,205.875)"/>
<path d="M0 0 C1.50064955 0.0050254 3.00130072 0.00958647 4.50195312 0.01367188 C8.14716977 0.02459424 11.79232422 0.04180144 15.4375 0.0625 C15.4375 1.3825 15.4375 2.7025 15.4375 4.0625 C14.83204346 4.1668335 14.22658691 4.27116699 13.6027832 4.37866211 C-10.13986575 8.56671551 -32.68673083 15.89510938 -55.375 23.875 C-56.03316711 24.10552063 -56.69133423 24.33604126 -57.3694458 24.57354736 C-59.25506278 25.2366638 -61.13735655 25.90920646 -63.01953125 26.58203125 C-64.6279187 27.15594604 -64.6279187 27.15594604 -66.26879883 27.74145508 C-69.36996212 28.89668808 -69.36996212 28.89668808 -71.35946655 30.09353638 C-77.14474827 33.40578091 -82.04239603 33.59084481 -88.625 33.453125 C-89.65689453 33.44746521 -90.68878906 33.44180542 -91.75195312 33.43597412 C-95.0226229 33.41372256 -98.2921657 33.3635463 -101.5625 33.3125 C-103.79034868 33.29242054 -106.01821466 33.27417231 -108.24609375 33.2578125 C-113.6852753 33.2138948 -119.1238071 33.14709592 -124.5625 33.0625 C-102.06688045 15.87386141 -69.17966578 11.0658668 -42.2265625 4.90234375 C-39.80133621 4.34645499 -37.37932501 3.77633078 -34.9609375 3.19140625 C-33.83945312 2.92199219 -32.71796875 2.65257812 -31.5625 2.375 C-30.61375 2.14425781 -29.665 1.91351562 -28.6875 1.67578125 C-19.14954334 -0.19604274 -9.66986663 -0.0565739 0 0 Z " fill="#8770CE" transform="translate(1034.5625,566.9375)"/>
<path d="M0 0 C0.52382822 6.66945574 -1.38440162 12.1601357 -3.5 18.4375 C-3.83386719 19.45521484 -4.16773438 20.47292969 -4.51171875 21.52148438 C-5.33200798 24.01750733 -6.16161493 26.51000909 -7 29 C-6.45472656 28.24976563 -5.90945313 27.49953125 -5.34765625 26.7265625 C11.20033389 4.26655537 11.20033389 4.26655537 24 0 C26.72331488 -0.23188622 29.25039269 -0.13093368 32 0 C32.99 0.99 32.99 0.99 34 2 C33.7933414 7.37312359 32.49859428 10.9016467 29 15 C25 15 25 15 22 13 C18.95486501 12.43346326 16.90802783 12.51341968 14.1484375 13.9921875 C-2.58339104 25.79112635 -12.19112745 45.70204735 -18.58984375 64.61328125 C-18.84870361 65.37721191 -19.10756348 66.14114258 -19.37426758 66.92822266 C-19.86005248 68.39015875 -20.33099252 69.85714741 -20.78393555 71.32958984 C-22.75656242 77.37198843 -25.78947602 80.52631734 -31 84 C-33.6875 83.625 -33.6875 83.625 -36 83 C-34.86150114 71.15961189 -31.13818015 59.91913497 -27.5625 48.625 C-21.28870052 30.13321996 -21.28870052 30.13321996 -18 11 C-19.98 11.33 -21.96 11.66 -24 12 C-24 10.68 -24 9.36 -24 8 C-9.29920814 -0.45361991 -9.29920814 -0.45361991 0 0 Z " fill="#070707" transform="translate(771,205)"/>
<path d="M0 0 C3.1386414 6.36937315 6.27117495 12.74172245 9.39941406 19.11621094 C10.46505468 21.28585264 11.53210866 23.45480073 12.60058594 25.62304688 C14.13325271 28.73387702 15.66087351 31.84713958 17.1875 34.9609375 C17.66872314 35.934935 18.14994629 36.9089325 18.64575195 37.91244507 C19.0862085 38.81322784 19.52666504 39.71401062 19.98046875 40.64208984 C20.37129639 41.43706879 20.76212402 42.23204773 21.16479492 43.05111694 C22 45 22 45 22 47 C17.28667882 47.57497243 12.57273641 48.14444425 7.8581543 48.70898438 C6.25673807 48.90150965 4.6554969 49.09549715 3.05444336 49.29101562 C0.74377993 49.57292663 -1.56747659 49.84945064 -3.87890625 50.125 C-4.9402755 50.25624268 -4.9402755 50.25624268 -6.02308655 50.39013672 C-10.39200344 50.90452648 -14.61199274 51.08019202 -19 51 C-24.95703125 39.0859375 -24.95703125 39.0859375 -25.99462891 36.97949219 C-26.89976344 35.19735747 -27.8885803 33.45832238 -28.88671875 31.7265625 C-30 29 -30 29 -29.55078125 26.96484375 C-27.36297568 24.19288858 -24.82481744 21.89155956 -22.1875 19.5625 C-16.63332392 14.56853435 -11.32252796 9.39217259 -6.1394043 4.01391602 C-2.21289452 0 -2.21289452 0 0 0 Z " fill="#FCFCFC" transform="translate(672,39)"/>
<path d="M0 0 C-0.60688175 5.45736411 -1.50588897 10.70439314 -2.77734375 16.04296875 C-2.94875381 16.77445633 -3.12016388 17.50594391 -3.29676819 18.25959778 C-3.65698287 19.79195537 -4.01926579 21.32382815 -4.38354492 22.85522461 C-4.93821413 25.19050665 -5.48417604 27.52770725 -6.02929688 29.86523438 C-6.38229499 31.3621013 -6.73579332 32.85885038 -7.08984375 34.35546875 C-7.25137436 35.04827438 -7.41290497 35.74108002 -7.57933044 36.45487976 C-8.45520178 40.1111932 -9.49828756 43.55151535 -11 47 C-15.62609082 47.57273959 -20.25255624 48.14231474 -24.87939453 48.70898438 C-26.45274328 48.90212873 -28.02598691 49.09613141 -29.59912109 49.29101562 C-31.86268336 49.57127981 -34.12660795 49.84843669 -36.390625 50.125 C-37.09181458 50.21249512 -37.79300415 50.29999023 -38.51544189 50.39013672 C-41.71857961 50.77857346 -44.76511853 51 -48 51 C-43.86348845 39.37938765 -34.3812291 29.61878488 -26.32910156 20.50830078 C-25.19560632 19.22197939 -24.07670487 17.92282235 -22.9609375 16.62109375 C-8.11787072 -0.69581749 -8.11787072 -0.69581749 0 0 Z " fill="#FAFAFA" transform="translate(269,176)"/>
<path d="M0 0 C1.46705974 2.81829898 2.64461542 5.64821872 3.75 8.625 C5.62410598 13.39159407 8.01991216 17.63185945 10.73046875 21.96875 C13.5504574 26.48073184 13.13523925 29.87368528 12 35 C9.15259947 39.9565861 7.79785722 40.06738093 2 42 C2 47.61 2 53.22 2 59 C1.01 59 0.02 59 -1 59 C-1 53.39 -1 47.78 -1 42 C-2.98 41.34 -4.96 40.68 -7 40 C-10.69952257 36.70042582 -11.94425431 33.35203747 -12.296875 28.51953125 C-11.69471629 23.40910539 -8.63666122 19.3095773 -6 15 C-5.04040673 13.22006842 -4.1014562 11.42879039 -3.1875 9.625 C-2.78917969 8.85414063 -2.39085937 8.08328125 -1.98046875 7.2890625 C-0.94355465 4.86821922 -0.42601855 2.59275807 0 0 Z " fill="#FFBC07" transform="translate(582,125)"/>
<path d="M0 0 C3.1386414 6.36937315 6.27117495 12.74172245 9.39941406 19.11621094 C10.46505468 21.28585264 11.53210866 23.45480073 12.60058594 25.62304688 C14.13325271 28.73387702 15.66087351 31.84713958 17.1875 34.9609375 C17.66872314 35.934935 18.14994629 36.9089325 18.64575195 37.91244507 C19.0862085 38.81322784 19.52666504 39.71401062 19.98046875 40.64208984 C20.37129639 41.43706879 20.76212402 42.23204773 21.16479492 43.05111694 C22 45 22 45 22 47 C17.28667882 47.57497243 12.57273641 48.14444425 7.8581543 48.70898438 C6.25673807 48.90150965 4.6554969 49.09549715 3.05444336 49.29101562 C0.74377993 49.57292663 -1.56747659 49.84945064 -3.87890625 50.125 C-4.9402755 50.25624268 -4.9402755 50.25624268 -6.02308655 50.39013672 C-10.39200344 50.90452648 -14.61199274 51.08019202 -19 51 C-24.95703125 39.0859375 -24.95703125 39.0859375 -25.99462891 36.97949219 C-26.89976344 35.19735747 -27.8885803 33.45832238 -28.88671875 31.7265625 C-30 29 -30 29 -29.55078125 26.96484375 C-27.36297568 24.19288858 -24.82481744 21.89155956 -22.1875 19.5625 C-16.63332392 14.56853435 -11.32252796 9.39217259 -6.1394043 4.01391602 C-2.21289452 0 -2.21289452 0 0 0 Z M-3 6 C-4.37671875 7.39412109 -4.37671875 7.39412109 -5.78125 8.81640625 C-7.02024063 10.06569227 -8.25986502 11.31434995 -9.5 12.5625 C-10.13768311 13.20493652 -10.77536621 13.84737305 -11.43237305 14.50927734 C-15.33861303 18.41799685 -19.30106099 22.14369417 -23.64453125 25.5703125 C-25.36381944 27.38374039 -25.66022631 28.53149688 -26 31 C-25.32667566 33.07908758 -25.32667566 33.07908758 -24.12890625 35.109375 C-23.51499023 36.24052734 -23.51499023 36.24052734 -22.88867188 37.39453125 C-22.2322168 38.56048828 -22.2322168 38.56048828 -21.5625 39.75 C-21.12873047 40.54277344 -20.69496094 41.33554688 -20.24804688 42.15234375 C-19.17607546 44.10780809 -18.09321878 46.05635908 -17 48 C-12.79954751 47.47627752 -8.6004551 46.94297448 -4.40234375 46.40087891 C-2.97494276 46.21792029 -1.54720702 46.03755349 -0.11914062 45.85986328 C1.9371404 45.60354413 3.99202507 45.33783354 6.046875 45.0703125 C7.28276367 44.91320801 8.51865234 44.75610352 9.79199219 44.59423828 C12.6119431 44.07188208 14.55991253 43.45446262 17 42 C15.10556095 38.04099793 13.20919049 34.08292388 11.3125 30.125 C10.78205078 29.01640625 10.25160156 27.9078125 9.70507812 26.765625 C8.64935486 24.56350285 7.58966 22.36328004 6.52587891 20.16503906 C5.53557309 18.11090712 4.55788998 16.05062368 3.59521484 13.98339844 C2.95060303 12.62649902 2.95060303 12.62649902 2.29296875 11.2421875 C1.92067139 10.44409668 1.54837402 9.64600586 1.16479492 8.82373047 C0.05846002 6.66987053 0.05846002 6.66987053 -3 6 Z " fill="#141414" transform="translate(672,39)"/>
<path d="M0 0 C1 1 1 1 1.01953125 2.85546875 C0.23049677 11.74327226 -3.86139533 16.39086689 -10.48828125 22.09765625 C-15.56509015 25.94276657 -20.55726056 29 -27 29 C-25.39839466 18.91172728 -19.48514484 9.79287711 -12 3 C-7.79437082 0.10249809 -5.13272175 -0.39482475 0 0 Z " fill="#F7F7F7" transform="translate(716,212)"/>
<path d="M0 0 C1 1 1 1 1.3125 4.0625 C0.78949964 10.6523046 -1.71119539 15.09558897 -6.5 19.625 C-11.75427001 23.92934549 -19.04998887 29 -26 29 C-25.7905101 19.78244431 -20.03975317 11.75776246 -13.75 5.375 C-9.16613576 1.0294967 -6.45120855 -0.35840047 0 0 Z " fill="#F9F9F9" transform="translate(381,212)"/>
<path d="M0 0 C6.99192402 3.01756721 9.66733343 11.14838314 12.8125 17.6875 C13.12678955 18.32905029 13.4410791 18.97060059 13.76489258 19.6315918 C15.44787166 23.2287669 16.38828935 26.01813083 16 30 C14.1875 30.6875 14.1875 30.6875 12 31 C11.38125 30.2575 11.38125 30.2575 10.75 29.5 C8.98293183 27.63437493 8.98293183 27.63437493 5.83984375 28.18359375 C-1.61505423 29.27590493 -8.93030398 31.28048531 -16.24487305 33.06420898 C-18.23896296 33.54884554 -20.23460336 34.02664331 -22.23046875 34.50390625 C-23.41020264 34.79080322 -24.58993652 35.0777002 -25.80541992 35.37329102 C-28.64772056 35.93089023 -31.11750176 36.12977511 -34 36 C-33.67 35.01 -33.34 34.02 -33 33 C-32.34 33.33 -31.68 33.66 -31 34 C-28.46065654 33.5344537 -26.00199547 32.99610818 -23.5 32.375 C-22.75693604 32.19549805 -22.01387207 32.01599609 -21.24829102 31.83105469 C-12.77801698 29.75439149 -4.38537128 27.39301824 4 25 C3.71125 24.38511719 3.4225 23.77023438 3.125 23.13671875 C2.75375 22.32847656 2.3825 21.52023438 2 20.6875 C1.62875 19.88699219 1.2575 19.08648437 0.875 18.26171875 C0 16 0 16 0 13 C-5.40998894 15.46301413 -10.05947553 18.72277095 -14.875 22.1875 C-15.65875 22.74630859 -16.4425 23.30511719 -17.25 23.88085938 C-19.1693825 25.25017494 -21.0859242 26.62328137 -23 28 C-23.66 27.67 -24.32 27.34 -25 27 C-22.3139614 24.93559136 -19.62590155 22.87383022 -16.9375 20.8125 C-15.80924805 19.9452832 -15.80924805 19.9452832 -14.65820312 19.06054688 C-13.91376953 18.49013672 -13.16933594 17.91972656 -12.40234375 17.33203125 C-11.29729492 16.4819751 -11.29729492 16.4819751 -10.16992188 15.61474609 C-8.14546121 14.10824488 -6.07228943 12.72612451 -3.96484375 11.33984375 C-0.84872202 9.40365204 -0.84872202 9.40365204 -0.60375977 6.96313477 C-0.59432377 4.48895384 -0.59432377 4.48895384 -1 1 C-0.67 0.67 -0.34 0.34 0 0 Z " fill="#070707" transform="translate(636,65)"/>
<path d="M0 0 C2.475 5.94 2.475 5.94 5 12 C-1.84641072 14.37209666 -8.73356493 16.32336054 -15.75 18.125 C-16.76449219 18.38925781 -17.77898438 18.65351562 -18.82421875 18.92578125 C-23.2023039 20.05913575 -27.55775899 21.14526256 -32 22 C-31.64788178 19.44714288 -31.25548569 18.24565932 -29.375 16.4375 C-27 15 -27 15 -23.8984375 13.796875 C-18.36286358 11.46022547 -13.76294367 7.6746557 -8.96484375 4.11914062 C-8.23910156 3.59126953 -7.51335938 3.06339844 -6.765625 2.51953125 C-6.11368164 2.03589111 -5.46173828 1.55225098 -4.79003906 1.05395508 C-3 0 -3 0 0 0 Z " fill="#F8F8F8" transform="translate(636,78)"/>
<path d="M0 0 C0.66 0 1.32 0 2 0 C2.61875 1.546875 2.61875 1.546875 3.25 3.125 C4.36563081 5.78863528 5.42249633 7.56735221 7.1875 9.9375 C9.58067516 13.98114079 9.3192614 16.37070974 9 21 C8.34 21.33 7.68 21.66 7 22 C7 21.01 7 20.02 7 19 C6.566875 19.495 6.13375 19.99 5.6875 20.5 C4 22 4 22 1 22 C1 22.66 1 23.32 1 24 C1.66 24.33 2.32 24.66 3 25 C-0.51387796 25.31944345 -2.37550387 25.43883512 -5.3125 23.375 C-7.40999322 20.4229725 -7.79504988 18.6149713 -8 15 C-6.6015625 11.89453125 -6.6015625 11.89453125 -4.625 8.8125 C-1.92895954 4.58894906 -1.92895954 4.58894906 0 0 Z " fill="#FEBD09" transform="translate(617,159)"/>
<path d="M0 0 C2.94897721 2.74559948 5.26205705 5.34117274 7 9 C6.875 11.1875 6.875 11.1875 6 13 C5.01 13.66 4.02 14.32 3 15 C3.33 15.66 3.66 16.32 4 17 C-1.34965035 17.35664336 -1.34965035 17.35664336 -3.9375 15.9375 C-5.6955698 12.73160802 -4.86728565 10.46914259 -4 7 C-2.81183196 4.53263491 -1.46905028 2.32204722 0 0 Z " fill="#FFBD09" transform="translate(603,115)"/>
<path d="M0 0 C3.50778211 4.20933853 7 9.4255442 7 15 C1.82399083 16.28914514 -3.35382577 17.57066091 -8.53344727 18.84521484 C-10.29437877 19.27965678 -12.05480289 19.7161608 -13.81469727 20.15478516 C-16.34780656 20.78573754 -18.88266186 21.409195 -21.41796875 22.03125 C-22.20149216 22.22811401 -22.98501556 22.42497803 -23.7922821 22.62780762 C-27.60973502 23.55685089 -31.03706158 24.24833034 -35 24 C-34.505 22.515 -34.505 22.515 -34 21 C-33.34 21.33 -32.68 21.66 -32 22 C-29.46065654 21.5344537 -27.00199547 20.99610818 -24.5 20.375 C-23.75693604 20.19549805 -23.01387207 20.01599609 -22.24829102 19.83105469 C-13.77801698 17.75439149 -5.38537128 15.39301824 3 13 C2.69964844 12.39671875 2.39929688 11.7934375 2.08984375 11.171875 C1.70957031 10.37265625 1.32929687 9.5734375 0.9375 8.75 C0.55464844 7.96109375 0.17179688 7.1721875 -0.22265625 6.359375 C-1.08564091 3.74006478 -0.93045933 2.55144824 0 0 Z " fill="#404040" transform="translate(637,77)"/>
<path d="M0 0 C0.99 0 1.98 0 3 0 C3 5.94 3 11.88 3 18 C2.01 18 1.02 18 0 18 C0 12.06 0 6.12 0 0 Z " fill="#2E2D28" transform="translate(581,166)"/>
<path d="M0 0 C3.50778211 4.20933853 7 9.4255442 7 15 C4.36 15.33 1.72 15.66 -1 16 C0 14 0 14 3 12 C2.69964844 11.46890625 2.39929688 10.9378125 2.08984375 10.390625 C1.51943359 9.33101562 1.51943359 9.33101562 0.9375 8.25 C0.36322266 7.20585938 0.36322266 7.20585938 -0.22265625 6.140625 C-1.1312406 3.63859372 -0.88336837 2.4667645 0 0 Z " fill="#2E2E2E" transform="translate(637,77)"/>
<path d="M0 0 C0.99 0.33 1.98 0.66 3 1 C-1.43641962 4.66293564 -6.10461571 7.95092937 -10.8125 11.25 C-11.60076172 11.80429688 -12.38902344 12.35859375 -13.20117188 12.9296875 C-15.13310987 14.28789845 -17.06607205 15.64462475 -19 17 C-19.66 16.67 -20.32 16.34 -21 16 C-18.25023603 13.89552474 -15.50014721 11.79147441 -12.75 9.6875 C-11.97269531 9.09259766 -11.19539062 8.49769531 -10.39453125 7.88476562 C-9.64042969 7.30791016 -8.88632812 6.73105469 -8.109375 6.13671875 C-7.07248535 5.34334106 -7.07248535 5.34334106 -6.01464844 4.53393555 C-5.01739746 3.77463745 -5.01739746 3.77463745 -4 3 C-2.97567871 2.12952026 -2.97567871 2.12952026 -1.93066406 1.24145508 C-1.29354492 0.8317749 -0.65642578 0.42209473 0 0 Z " fill="#2F2F2F" transform="translate(632,76)"/>
<path d="M0 0 C0 0.33 0 0.66 0 1 C-2.62275173 1.55561711 -5.24707977 2.09492378 -7.875 2.625 C-8.62136719 2.78484375 -9.36773438 2.9446875 -10.13671875 3.109375 C-12.0758447 3.49370627 -14.03835574 3.75531287 -16 4 C-16.66 3.34 -17.32 2.68 -18 2 C-16.12922332 1.46419503 -14.2531083 0.94701113 -12.375 0.4375 C-11.33085938 0.14746094 -10.28671875 -0.14257812 -9.2109375 -0.44140625 C-5.80977098 -1.03309337 -3.34551658 -0.75851802 0 0 Z " fill="#EB7BC6" transform="translate(583,568)"/>
<path d="M0 0 C0.75 1.75 0.75 1.75 1 4 C-0.5625 6.25 -0.5625 6.25 -3 8 C-6.25 8.25 -6.25 8.25 -9 8 C-8.01 7.34 -7.02 6.68 -6 6 C-4.31337542 4.35353315 -2.64488294 2.68816933 -1 1 C-0.67 0.67 -0.34 0.34 0 0 Z " fill="#FFF6DF" transform="translate(591,156)"/>
<path d="M0 0 C0.33 0.99 0.66 1.98 1 3 C-0.4375 5.6875 -0.4375 5.6875 -2 8 C-3.32 7.67 -4.64 7.34 -6 7 C-6 6.34 -6 5.68 -6 5 C-4.34467377 3.98133771 -2.67739862 2.98189187 -1 2 C-0.67 1.34 -0.34 0.68 0 0 Z " fill="#FFE08D" transform="translate(624,176)"/>
<path d="M0 0 C0.66 0.33 1.32 0.66 2 1 C-0.46153846 5.8 -0.46153846 5.8 -3.1875 6.8125 C-3.785625 6.874375 -4.38375 6.93625 -5 7 C-4.60196439 4.11424181 -4.20990931 3.17810487 -1.9375 1.25 C-1.298125 0.8375 -0.65875 0.425 0 0 Z " fill="#ABABAB" transform="translate(609,93)"/>
<path d="M0 0 C2.15377564 2.62198774 3.40072174 4.64404172 4 8 C3.01 8 2.02 8 1 8 C0.26919734 6.02253397 -0.39421747 4.01927511 -1 2 C-0.67 1.34 -0.34 0.68 0 0 Z " fill="#464646" transform="translate(637,77)"/>
<path d="M0 0 C2.97 0.99 5.94 1.98 9 3 C8.67 3.99 8.34 4.98 8 6 C6.66402348 5.19185349 5.331275 4.37836819 4 3.5625 C3.2575 3.11003906 2.515 2.65757812 1.75 2.19140625 C1.1725 1.79824219 0.595 1.40507812 0 1 C0 0.67 0 0.34 0 0 Z " fill="#1B1B1B" transform="translate(585,185)"/>
<path d="M0 0 C0.99 0.33 1.98 0.66 3 1 C-2.14285714 5.42857143 -2.14285714 5.42857143 -6 6 C-4 4 -2 2 0 0 Z " fill="#FFC528" transform="translate(590,161)"/>
</svg>
